<?xml version="1.0" encoding="utf-8"?>
<!-- Generator: Adobe Illustrator 19.1.0, SVG Export Plug-In . SVG Version: 6.00 Build 0)  -->
<svg version="1.1" id="Layer_1" xmlns="http://www.w3.org/2000/svg" xmlns:xlink="http://www.w3.org/1999/xlink" x="0px" y="0px"
	 viewBox="-308 62 661.5 678" style="enable-background:new -308 62 661.5 678;" xml:space="preserve">
<style type="text/css">
	.st0{fill:#FFFFFF;fill-opacity:5.000000e-02;stroke:#000000;stroke-width:2;stroke-linecap:round;stroke-linejoin:round;}
</style>
<polygon class="st0" points="255.3,324.8 269.5,324.8 265.8,314.9 263.6,313.5 254.3,298.9 253.6,298.8 251.5,297.4 245.1,301.6 
	237,301.1 236.3,307.9 240.2,308.2 238.8,315.6 239.9,316.1 236.3,315.8 236.2,314.6 234.4,314.8 234.3,314.1 230.6,315.4 
	230.7,315.7 218.2,320.1 215.8,312.8 215.2,313 215,310.7 213.7,310.1 213.1,308.4 214.3,308 214.4,307.3 214.8,307.3 215.2,306 
	215.1,305.9 214.8,304.3 214.2,304.5 213.6,303.2 212.9,303.7 212.8,303.6 213.4,303.3 211.5,301.9 210.4,302.2 209.7,301.9 
	209,302.4 208.2,302.3 208.3,302.1 206.5,301.7 203.3,305.2 201.9,308.7 201.6,308.6 200.6,309.5 200.6,311.2 201.1,312.3 
	202.4,312.8 204.1,316.1 204.3,318.3 201.5,327.3 204,327.8 202.1,328.9 203.3,330.2 203.3,330.4 204.1,331.1 205.8,334.7 
	208.4,336.4 208.7,336.2 207.9,340.4 211.4,339.7 225.7,346.1 226.3,341.4 228.6,339.9 231.5,343.4 235.8,340 235.1,339.1 
	237.5,337.1 234,330.4 238.1,330.6 237.8,333.6 238.7,333.7 238.7,334.2 240.7,333.7 245.2,334.8 244.2,331.1 255.7,331.5 "/>
<polygon class="st0" points="-270.9,694.4 -271.7,693.1 -272.1,693 -272.8,691.9 -273.6,692.1 -273.7,692.1 -273.9,690.7 
	-278.1,695.9 -278.4,695 -280.3,696.7 -280.2,697.1 -282,698.5 -282.2,698 -288.3,702 -288,703 -288.8,703.8 -288.4,704.8 
	-292.2,713.9 -286.2,714.9 -264.6,702.5 -271.4,696.3 "/>
<polygon class="st0" points="290.7,371.2 273.2,378.1 274.6,379.4 279,391.8 294.8,383.1 291.1,376.6 292.7,375.2 "/>
<polygon class="st0" points="185.1,417 186.2,425.1 193,422.7 190.1,415.8 188.9,416.1 "/>
<polygon class="st0" points="253.9,170.5 254.2,170.4 255,171 256.9,171.6 256.9,171.8 257.3,172.2 257.6,172.9 257.6,173.3 
	259.6,176.6 259.7,176.6 259.9,177.2 258.9,179.8 258,180 257.9,180.3 253.7,181.9 257.7,191.5 260,190.6 263.9,197 264.2,199 
	264,199.2 264.7,201.4 265.8,200.9 266.8,201.5 268.4,201.5 268.6,201 269.9,200.1 270,199.8 271.5,198.7 271.9,195.2 271.6,194.4 
	272.3,194.2 271.5,191.1 270.1,191.5 269.4,190.4 269.2,189.8 269.4,189.2 269.2,188.6 269.4,187.8 269.4,187.5 269.6,187 
	275.7,184.7 271.7,175.2 267.7,176.7 267.6,176.6 266.2,176 263.3,172.9 263.6,171.7 263.4,171.3 263.5,170.7 263.1,169.8 
	263.1,167.8 262.9,167.4 262.9,167.2 263.6,167.5 264.6,167.4 265.5,166.6 266.7,166.5 265.6,161.9 262.7,162.6 262.2,164.8 
	261.8,164.4 261,164.1 260.4,164.1 259.7,164.4 257.8,167.2 257.4,167.5 257.1,168 255.5,167.8 255.7,164.5 251.2,166.2 
	252.5,170.9 "/>
<polygon class="st0" points="308,426.8 306.2,421.3 301.8,422.9 300.1,418.6 294.8,420.4 293.2,414.3 289.5,420.4 286.9,422.5 
	281.3,414.6 272.6,423.4 275.2,427.2 280.4,425.7 290.6,427.7 290.5,427.6 291.8,427.8 289.1,430.5 290.8,435.1 292.9,434.4 
	294.3,441.3 309.8,431.3 310.3,430.4 308.6,426.5 "/>
<polygon class="st0" points="-150.1,653.9 -150.5,652.5 -151.8,651 -151,650.2 -157.8,641.8 -173.8,648.6 -172.6,651.8 
	-170.7,650.7 -170.1,653.5 -168.4,653.7 -167.6,653.1 -167,653.7 -166.1,653.2 -164,658.3 -159.7,662.1 -158,660.5 -156.4,661.7 
	-155.5,658.8 -154.5,659.7 -149.4,655.5 -150.5,654.2 "/>
<polygon class="st0" points="308.4,456.9 309.7,457.3 310.9,454.1 311.7,454.3 313.8,448 303.1,443.7 299.5,452.1 299.9,456.3 
	299.2,456.2 299.3,458.4 299.9,458.6 300.7,462.1 312,467.5 306.9,459 308.3,457 "/>
<polygon class="st0" points="306.7,315.8 301.8,309 297.4,307.5 297.2,307.5 295.5,303.7 293.8,302.2 293.6,301.6 293.3,301.4 
	292.8,300 287.3,301.4 286.9,302.8 278,305.7 284,321 "/>
<polygon class="st0" points="233.3,432.7 213.5,440.3 212.9,440.6 214.2,445 216.6,444.7 216.7,445.6 220.7,445.3 220.7,444.8 
	221.5,444.9 221,443.7 221.3,443.6 221.1,443 224,441.9 223.7,441.2 233.2,437 "/>
<polygon class="st0" points="275.5,406 273.4,399.1 271.5,399.6 270,394.7 271.4,394.3 270.5,391.2 267.1,391.5 266.9,388.9 
	268.9,388.5 267.3,384.2 263,385.9 263.3,387.5 260.5,388.4 260.7,389 258.9,388.4 258.6,389.8 256.3,389.7 253.6,387.9 250,389.4 
	256,403.7 255.8,403.8 258.7,409.1 258.7,410.4 259.6,412.2 265,410 264.3,408.5 268.9,406.5 "/>
<polygon class="st0" points="237.4,431.7 238.5,434.4 240.6,431.2 243,433.1 249.1,423.9 248.2,423 243.5,409.6 235.9,409.7 
	234.8,397 232.6,397.2 229.1,389.2 214,387.8 215.2,395.7 211.8,390.7 197.4,398.5 177.3,394.6 179.2,397.4 175.8,400 176.7,401.3 
	175.4,402.2 174.8,404.7 176.6,407.4 176.3,410.2 178,410.4 177.7,413 181.2,413.4 181.4,412.3 181.9,412.2 182.2,413.1 
	183.5,414.6 183.8,416.2 185.6,416.4 200,408.6 200,408.4 200.9,408.9 216.1,401.5 216.2,401.9 216.9,402.6 218.3,403.1 
	221.6,406.7 222.3,412.1 228.3,411.5 236.6,432.5 "/>
<polygon class="st0" points="196.5,453.6 198.5,452.5 198.5,452.4 204.1,450.3 202.5,445.3 194.7,446.6 "/>
<polygon class="st0" points="218.5,295.2 231.5,296.9 231.8,297.3 237.6,298.5 239.1,286.3 240.3,286.4 238.3,282.2 239.6,281.9 
	239.9,279.4 253.8,281.2 260.3,277.9 256,270.4 256.8,267.7 256.4,266 254.7,263.9 249.2,262 247.1,262.5 237.1,260.6 237.1,260.5 
	233.1,258.7 232.8,260.7 230.9,259.5 231.3,259 229.6,257.8 229.8,257.6 225.5,254.9 220.7,255.2 221.8,258.3 221.4,258.9 
	220,259.9 219.3,261.1 225.3,277.3 220.6,278.7 222,283.1 222,284.4 "/>
<polygon class="st0" points="256.8,579.6 243.8,580.9 244.1,582.4 239.5,581 238.9,580.4 238.4,580.4 238.4,579.2 236.3,579.7 
	236.2,580 219.8,591.2 219.6,590.8 195,595.9 195.8,597.9 194.3,598 194.2,597.9 187.9,597.2 187.3,597.6 187.1,597.6 187,597.7 
	186.1,597.8 185.3,598.6 185.2,599.1 180.9,602.5 180.5,602.4 175.4,604.6 181.3,618.4 192.6,612.7 200.5,608.8 200.6,608.8 
	237.1,595.1 237.2,594.2 237.4,594.1 237.5,594.4 239.6,594 239.6,593.5 260,588.8 259.2,580.7 "/>
<polygon class="st0" points="271.2,462.8 268,458.8 263.3,462.3 262.6,465.5 262.4,465.8 262.2,466.2 261.7,466.6 263.4,455.4 
	254.3,453.9 254.4,451 250,451 250.2,452.7 249.8,452.7 249.8,453.2 245.6,452.5 248.2,456.8 249.7,462.9 249.5,463.3 249.4,466.7 
	252.2,467 252.2,466.8 253.4,466.9 253.4,466.6 255.7,466.8 255.7,466.5 255.9,466.6 256.9,467.7 257.2,466.3 261.4,466.8 
	261.3,466.9 261.4,468 261.2,468.2 261.6,469.1 261.6,471.9 262.7,472.3 263.1,472.6 264.6,472.7 264.9,472.3 265.3,472 
	265.8,472.1 267.9,469.8 267.8,469.6 268.2,469.2 268.3,468.6 269.8,466.7 269.7,465.9 272.9,465.4 "/>
<path class="st0" d="M272.8,432.6l-1.8,3.1l-1.4,0.3l-0.6,0.5h-0.7l0.2-0.1l-0.5-0.8l4-3l-0.5-1.3l-2.7-3.1l-0.7,0.8v-0.4l-0.7-1.1
	l-0.5-0.2l-0.2-0.4l0.4-0.7l-0.7-0.5v-0.3l-1.6-1.5l-1.6,2l-0.2-0.4l-2.8,0.5l0.1,1.1l-4,2.3l-0.2-0.3l-3.8,2.2l3.6,6.7l0.7,5.9
	l7.9-1.6l0.8-1h0.7l0.3-1.7l0.3-0.2l0.1-0.7l0.6-0.3l5,11l3-2.8l5.7-2.3l-7.4-5.8L272.8,432.6z M267.5,437.2l0.1-0.2l0.6-0.4
	L267.5,437.2L267.5,437.2z"/>
<polygon class="st0" points="289.7,471.9 286.6,471.5 286.5,469.7 285,469.1 281.1,475.1 288.4,477.4 "/>
<polygon class="st0" points="111.9,302.8 115.5,299 119.1,295.1 106.8,283.7 99.6,291.4 "/>
<polygon class="st0" points="-146.3,504 -146.3,503.6 -149.3,503.9 -149.4,504.4 -153.3,505.4 -153.2,506.3 -153.5,505.4 
	-155.6,506 -155.7,505.8 -164.2,508.4 -167.5,508 -167.5,517.9 -141.3,518 -141.2,504.7 -142.7,504.5 "/>
<polygon class="st0" points="-70.8,523.7 -73.6,524 -73.5,523.5 -73.1,523.5 -73.5,520.7 -73.7,520.7 -73.6,519.1 -73.7,519.1 
	-73.7,517 -75.4,516.9 -75.8,513.4 -75,513.3 -74.5,513.5 -73.2,513.2 -73.3,512.5 -73.1,512.5 -73.3,509.9 -78.7,510.4 
	-81.3,509.3 -84.1,509.8 -83.8,508.6 -91.2,510 -91.3,509.9 -91.9,510 -92.1,508.8 -95.1,509.8 -94.5,512.7 -94.8,513.3 
	-95.4,513.6 -97.4,513.4 -98,512.6 -98.6,509.4 -95.1,508.7 -97.8,497 -112.8,496.6 -109,517 -103.8,517.9 -101.9,519.2 
	-101.2,519.2 -100.1,518.9 -98.8,519.2 -97.6,518.9 -96.9,519.6 -96.1,520 -95.1,519.9 -93.4,520.9 -96.4,525.9 -94.5,526.5 
	-94.7,527 -87.7,527.4 -87,528.5 -85.8,528.1 -84,528.3 -83.2,528 -82.9,527.2 -82.8,526.7 -82.5,526.2 -80.4,527.7 -79.4,527.6 
	-79.3,527.8 -75.1,527.2 -75.3,526.2 -70.6,525.8 "/>
<polygon class="st0" points="332.2,466.3 322.5,466.3 323.8,468.3 321,472.9 323.5,475.1 323.1,475.8 323,476.6 323.1,477 
	323.1,478.6 330.5,479.5 330.4,478.7 330.9,478.8 331.9,480.3 336.2,480.6 335.1,477.2 "/>
<polygon class="st0" points="-144.6,502.5 -128.9,502.1 -128.6,483.5 -143.8,483.5 "/>
<polygon class="st0" points="317.5,558.1 315.1,552.5 311.1,554.6 311,552.8 307.8,553.1 306.9,554.1 306.3,553.6 306.2,553.8 
	305.7,553.6 305.4,553.7 303.7,553.1 303.3,553.2 302.4,552.6 300.4,552.8 300.1,552.6 295.9,552.3 295.5,552.6 293.2,550.6 
	291,550.2 291.3,547.4 282.8,554.1 282.8,555.5 283.3,555.8 282.9,561.3 282.5,561.4 281.6,572.2 282.5,572.6 282.3,573 
	288.1,576.5 288.3,577.1 289.1,577.3 289.5,580.5 295.7,579.8 296.2,579.6 296.6,579.7 299.2,579.3 299.9,578.9 301.1,578.9 
	301.2,577.7 301.3,577.8 301.7,578.4 302.7,578.3 302.7,579.2 316.1,579.5 313.5,564.7 314.5,561.7 "/>
<polygon class="st0" points="322.2,401 325.6,401.6 327.5,396.1 335.9,398.8 335.8,398.2 337.6,398.6 330,370.4 312.8,365.2 
	309.2,368.1 311.1,370.6 310,371.4 310.4,372.6 320.1,384.6 307.9,388.5 311.2,400.1 312,402.5 312.3,402 313.4,405.8 315.6,405.3 
	315.5,403.7 318.1,402.6 321.3,403.6 "/>
<polygon class="st0" points="87.2,246.1 88.1,246.6 87.9,246.9 88.9,247.5 88.6,248.1 91.2,249.6 90.7,250.5 93.4,252 94.3,253.9 
	95.2,253.4 99.6,255.8 101,255.7 102.6,256.3 102.7,256.2 103.1,256.5 104.1,258.7 112,263.7 114.8,264.3 117.7,263.6 127.8,251.7 
	136.3,249.4 139.5,250 147.5,255.1 147.6,254.9 147.8,255.9 162.4,257.8 163,257.5 168,248.8 168,246.5 172.8,249.3 172.7,249.4 
	186.2,257.1 188,258.1 189.3,258.9 203.8,232.3 222.4,242.9 224.4,239.2 226.3,240.3 227.3,238.4 231,240.5 231.6,239.5 234,239.8 
	235.9,240.9 234.9,242.7 244,247.9 245.6,245.2 246.6,245.5 249.8,244.4 248.5,240.1 254.1,230.3 246.5,226 251.1,217.8 
	234.6,208.7 233.3,211.1 233,210.9 233.4,210.2 231.7,209.2 232.7,207.3 229,205.2 237.4,190 228.3,184.8 219.9,200.1 216.9,198.4 
	218.9,198.3 217.4,189.7 214.1,187.3 212.1,188.7 208.3,188.3 208.4,189 203.9,189.3 203.9,190.4 203.8,190.4 203.8,191.1 
	190.2,183.5 186.5,181.4 186.9,178.9 185.1,180.6 177,176 175.5,175.1 160.3,166.8 158.5,169.7 150,164.6 149.7,163.7 143.6,159.8 
	143.8,159.4 145.7,160.7 145.9,160.4 146.3,160.6 146.4,160.4 147.4,161.1 147.2,161.5 149.5,162.9 153.3,157 151.5,154.1 
	156.4,150.6 158.6,152.2 159.9,150.5 159.9,150.6 159.4,151.4 159.7,151.8 159,152.6 158.9,152.5 157.2,153.4 157.7,156 
	158.2,156.5 157.2,159.2 159,158 159.6,158.9 158.4,161 166.3,161.3 166.1,157.6 167.2,157.6 166.9,152.8 169.2,154.1 169.2,154 
	170.3,154.6 169,168.8 182.4,168.9 180.8,160.6 199.1,170.7 207.3,155.9 222.2,164.2 231.6,147.6 224.1,143.5 232.5,128.3 
	225,124.3 229.1,116.8 223.6,113.8 222.6,115.7 218.8,113.6 217.8,115.5 212,112 212,111.9 204.5,107.7 205.6,105.8 203.7,104.7 
	204.7,102.8 202.8,101.7 203.8,99.8 201.9,98.7 203,96.8 201.3,95.9 202,94.7 200,93.6 199.4,91.4 197,92.1 188.3,86.9 188,84.6 
	188.3,83.9 186.7,82.9 177.4,99.9 177.4,99.6 174.7,98.3 174.2,97 171.7,96.1 166.5,97.1 166.6,97.9 166,98 158.9,103.1 156,108.1 
	156.2,109.7 165,107.7 168.4,108.4 168.9,110.8 172,110.2 170.3,113.2 161.7,128.2 158.5,126.7 157.9,126.9 157.1,122.9 
	156.1,122.4 155,122.5 151.5,126.8 151,126.4 150.4,126.4 149.1,126.8 142.5,124.5 142.7,124.1 132.8,120.2 133.7,117.7 
	133.6,117.4 135.8,111.8 135.9,111.8 135.9,111.7 136.3,110.7 135.8,110.5 134.9,101.2 134.8,101.2 135.7,95.5 135.8,95.5 135.7,83 
	129.9,81 130.1,80.1 117.2,76.4 116.5,78.8 116.4,78.8 114.7,85 118.4,85.9 119.6,85.8 120.2,86.4 115.9,93.2 115.5,92.9 115,92.9 
	113.1,92.3 111.2,99.1 111.1,99.1 108.1,109 107.1,108.9 105.5,115.7 105.3,115.8 102,124 102.5,124.8 99.9,132.1 100.2,132.2 
	98.5,134.4 99.7,135.5 102.9,136.4 102.2,137.3 102.9,138.1 97.3,136.2 89.5,150 98.1,157.7 105.9,152.5 112.5,141.3 112.3,141.2 
	112.4,140.9 116.4,142.6 117.7,144.2 119.2,144.5 118.6,145.9 115.7,154.7 115.5,154.6 110.6,161.9 110.1,161.6 104.3,171.6 
	103.6,171.1 96.6,182.2 97.8,182.5 97.2,183.6 97,183.5 89.4,202.9 91,203.6 90.8,204.5 88.9,204.1 87.6,207.2 88.2,213.6 88,213.6 
	88.9,228.2 89,228.2 88.9,228.4 88.8,236.2 89.6,236.3 88.7,238 88.5,240.7 87.2,241.7 86.4,243.1 88.3,244.2 "/>
<path class="st0" d="M177.3,478.1l1-0.2l-0.2-0.9l1.8-1.1l-0.1-0.6h0.1l2.5-3.6l-0.2-2.7h0.1l-0.4-2.6l0.3-1l1-0.8l-1.3-8l-4.2,0.8
	l-0.3-0.2l-0.5-1.2v-0.4l-0.3-0.6l-0.1-0.4l0.4-1.2l-2.4-8.6l-0.8,0.1l-0.5-3.1l-2.4-2.7l-2.4-13.3l-8.8,3.8v-0.2l-0.9,0.5l-0.1-0.2
	l-5.7,3.8l-0.4-2.2l-2.1,0.4l6.6-4.6l-4.6-0.6l-0.1-0.1l5.1-0.9l-0.2-2.2h0.1l-0.1-1l-2.5-3.9l-1.5,0.4l-1.9-1.7l-0.3,1.8l-1.6-4.8
	l0.4-0.2l1,1.8l0.2-0.1l0.1,0.2l8.4-4.1l-0.4-0.6l3.6-0.4l-2.4-5.1l1.2-0.8l-0.2-0.9l7.3-0.6l-5.3-18.1l4.9-3.9l3.1,4l0.4,1.8
	l6.5-6.1l-0.3-0.1l3.5-4.1l-0.9-1.4l2.9-1.9l1.2-1.9l-20.5-4.6l-0.2-1.1l1.8-4.6l-0.3-0.1l0.3-1.2l-1.6-1.8l5-1.4l0.2,0.4l1.1,0.8
	l2.4-0.8l0.1,1l2.1-0.2v0.2h-0.2l-0.7,0.9l0.1,1.1l1.1,0.8l5,0.1l1.4-0.6l0.5,0.9l2.5-1.2l0.5,0.9l1.8-0.5l0.2-1.5l4.1-1.8l-1.2,2.5
	l0.1,0.9l-0.4,0.6l1,3.4l-1.6,0.4l-1.1-1l-1.5,1.2l0.4,1.4l-2.2,1.1l1,2.4l0.2,1.8l0.1,0.5l-4,2.4l1.4,4l3.1,1.6l1.1-0.8l1.6-0.2
	l5.3-2.9l-0.4-0.7l8.2-4.1l-0.6-1.1v-0.4l2.5-3.1l-1.8-0.6v-0.5l2.7-0.8l-1.1-3.2l-0.7,0.1v-0.1l0.5-0.6l-3.1-7.8l-3.4,1.2l0.5,1.2
	l-1.4,0.8l-0.1-0.2h-0.2l0.1-1.3l-3.7,1.4l-0.2,0.3l-0.6,0.4l0.8-6.2v-0.2l-2.3-0.9l0.3-0.5l-0.1-0.4l0.2-0.3l-0.5-0.7v-0.2
	l-0.1-0.2l0.1-0.4l-0.7-2.7l-0.2-0.2v-0.3L189,343l-0.8-0.2l-0.5-0.5l-6.5,2.5l-0.2,0.3l-0.5,0.3l-5.4-0.7l1.2,1.5l-1.5,1.2
	l-0.2-0.2l-0.7,0.5L172,345l-2.3-1.2L169,345l-1-5l-2.3,0.2l-1.2-3.4l-3,0.3v0.5l-0.7,0.3l-0.4-0.9l-0.8,0.4l-0.1-0.1l0.2-0.4
	l24.1-7.4l4.8-5.1l-2.2-0.3l-1.2-5L185,319v-0.1l-3.3-1.9l-2.5,2.1l-0.3-0.4l2.6-2.5l-17.2-17.3L163,297l-6-5.4l-2.6-0.9l-0.1,1.9
	h-0.2l-1.8,0.9v0.1l-0.3,0.1l-0.8,0.7l-1-0.8l-1.4,2.5h0.1l-0.7,1.2l-0.1,0.6l-0.9,0.2l-1.1-0.9l-3.8-0.8l-0.9,1.2l-1.7-0.5l2.3-2.6
	l-0.1-0.1l0.1-0.1l0.1-0.1l-4.1-3.8l1.4-1.6l-0.2-0.1l0.1-0.1l-4.9-4.3l-0.9-0.1l1.3-2.2l0.4-4.1l-1.1-2.6l-3.6-2.5l-4.3-0.2
	l-0.9-0.9l-7.1-1.5l-6.6,5.8l-1.3,3.1l17.4,16.2l-7.7,8.5l4.2,3.9l-0.8,0.9l0.7,0.2l1.9,0.4l-5.5,13.5h-0.2l-2.9,7.5l-0.9,0.1h-0.1
	l1.5,4.1l-0.6,2.4l-1.9-0.2l-1.3,5.3l-5.9,5.7l1,0.1v0.1l17.9,2.7l-0.7,2.4l1.2,2.2h0.3l-1.4,4.5l3.9,0.8l0.8-0.5l2.8,0.1l0.4,7.5
	l-1.3,2.1l0.3,4.1l-3.8,2.6l0.1,0.1l-1.2,0.8l-6.1-0.6l-1.4-3.3l3.9-3.8l-4.5-3l-9.1-1.4l0.1-1.1l-1.9-0.9l1.5-5l-7.1,0.6l-1.4-1.2
	l-0.3,0.6l-0.5-0.4l-4.1,7.9l-2-0.2l-0.9,0.4l-0.9,1l-0.6,1.7h-0.1l-0.3-0.3l-1.3,0.4l-0.3-1.3l-3.1,0.4v-0.1l-1.9-1.1l-4.3-7.9
	l-4.8-2.7l-0.1-0.5l-3.8-1.9l0.8-0.1l-2.1-1.9l1.2-1.5l-2.5-2.2l-1.7-6.3l-8.5,2.3l-0.1-0.7l-11.9,2.2l1.7-3.3l1.7-2.8l-0.4-0.2
	l2.7-5H54l3.2-4.6l1.7-1.2l2-3.6l1.1,0.6l1-3l3.1-2.1l1.1-1.9l-0.5-0.3L68,316l-0.2-0.1l4.7-7.1l0.1,0.1l6.8-10.2l-4.6-2.4l1.4-2.5
	l3.3-5.9l0.9,0.5l-0.1-1.9l0.1-0.2l-0.1-0.1l0.1-0.7l5.7-6.9l3.8-6.8l-17-9.4l11-19.9l-5.4-3l-3.4-1.9l-3.4-2l-1.2-0.7l-1.2,2
	l-1.1-0.6l-0.2,0.4l0.3-1.7l-0.3-0.2l0.1-1.3l-1.6-0.9l-6.8-3.7l1.1-1.9l-4.5-2.5l-1.4,2.7l-0.7-0.4l-2.8,5.4l1.6,1l-1.6,3.4
	l0.3,0.2l-1.7,3l0.1,0.1l-0.4,0.7l-1.5-0.8l-2.4,4.6l0.5,0.3l-1.6,2.8l1.1,0.6l-0.4,0.8l0.3,0.2l-0.2,0.4l-1.4-0.8l-2.8,5.1l0.3,0.2
	l-0.6,1.1l-0.3-0.2l-1.6,3l-0.6-0.3l-1.6,3h-0.1l-2.7,4.6l1.1,0.6l-2.1,3.9l0.4,0.2l-0.2,0.3L33,270l-2.6,4.9l0.1,0.1l-0.9,1.5
	l-4.3-2.3l-5,9.9l4.3,2.2l-0.9,1.7l-1.8-0.1l-3.2,5.7l0.3,0.2l-3.2,5.5l0.2,0.1l-4.8,9.1l1.3,0.7l-3.7,7.6l-2-1.1l-4.6,8.5L2,324.1
	l-4.6,12.3l1.9,1.1l-1.3,2.6l-2.2,3.9l1,2.5l-1.4,5.3h-1.7v12.9h4.6l-0.2,4.2l-0.6-0.1l-0.9,6.3l-0.5-0.1l-1,8.1l1.2,0.2l-0.4,2.6
	l-1.2-0.2l-0.8,1.2l-0.6,3.1l-1.3-0.8l0.1,0.9l-1-0.3l-0.5,1.9l-0.4-0.1l-1.2,6.7h-0.9l-0.6,6l-0.7,2.8l1.9,0.5l2.7,5.2l0.7,0.4
	l0.7,1l0.9,0.1l0.7,0.4l0.3,1.4l1.5-0.4l0.5,0.3l0.1,0.5l0.5-0.1h0.1l5.6-1.9l6.8-5.9L9.3,408l0.8-0.7L8.4,406l6.2-4.4v-0.2l8.6-1.1
	v-0.2l5.9-0.6v0.2l12.5-1.4l-0.3-2.7h0.1l0.9-2.2h0.1l1.1-2.9l-0.2-0.1l0.8-1.9l0.4-0.8h-0.1l0.4-1l-0.5-0.2l1.8-3.3l-1.1-0.6
	l0.1-0.3l-0.2-1.7l1.1-2.2l-0.3-0.2l3.1-5.5l-1.8-1l0.2-7.3l-3.2-1.8l3.2-5.8L44,355l3.3-5.9l-0.7-0.4l1.6-3.1l0.2,1.6l1.7,13.1
	l4-0.5l0.2,3.6l0.5,4.3l-0.2,0.1l1.2,5.1l-0.6,0.3l-3.7,6.9l0.1,0.6l-6.8,19.8l0.9,2.3l1.4,0.6l1.4,12.3l-1.2-0.1v0.1l-7.9-0.3
	l-3.3-0.1l0.2-3.2l-0.8-1.5l3.1-4.3l-1-1.7v-0.2l0.2-0.9h-1l-0.3-0.5l-0.2,0.5h-0.6l-1.6-0.2v0.2h-0.4v-0.1l-1.8-0.1h-0.1l-1.5,0.1
	h-0.6v0.1l-0.6,0.1v-0.1L19,404.3l-4.5,2.5l-2.3,4.3l0.6,0.6l-4.5,11.7L7,422.9L1,433l-0.3,0.1l-3.2,2.9l-0.6,1.8l-0.3-0.2l-6.2,5.1
	l-0.2-0.3l-2.1,1.5l-1.5,2.8l1.7,10.5l4.5,2.6l-0.2,0.5l0.8,1.5l3.2,1.2l1.2-0.6l0.1,0.1l1.8,0.1l0.7-1.3l3-1.3l0.6,0.3l-7,13.2
	l0.1,1.2l-1.6-1.5l-3,2.9l-0.1-0.2l-1.6-2l-4.3,4.7l-2-1.5l-7.8,10l4.2,3.1l0.9-1.1l4.7,3.5l-4.2,5.3l-5.3-4.1l-10.2,12.9l7.7,3.9
	H-39v8.5h4.4l-2.2,3.2l0.2,1.8l-1-0.3l-0.5,12.5l0.5,0.1l-2,6.7l0.5,0.4l2.6,6.7l5,1.6l-0.4,1.3l11.1,3.2l1.4-1.3l3,1.5l1-3l6,2.6
	l2-2.5l0.8,0.6l-7.5,9.4l1.7,1.4l-2.1,2.7L-6,574l1.5-1.8l5.7,4.6l2.1-2.9l1.2,0.8l2.9-1.4l0.1-0.1l2.8,2.2l0.1,1.1l1,1.6L7.2,581
	l3.1,5.3v0.5l3.1,4.6l3.4-2.1l3.7,10.1l-6.5,1l-0.5-3.1l-10,1.6l1.3,8.6l-1.3,0.2l-0.4,4.8l6.5,2.7l3.6-0.4l0.2-0.3l0.4-0.1l0.1,0.9
	l1.5,0.2l0.2,1.6l11-1.4l-0.1-0.7l1.1-0.2l-0.1-1h0.1l2,3.7l0.1-2.7l1.8-0.1l0.3-0.3v4.3h16.7v-5.9l2.2-0.6l0.6-1l13.2-2.5v0.2
	l4.2,1.2l14.3-2.2l-1.6-9.2l8.5-0.9l0.8,0.3l1.3-0.2l0.3-0.3l1.5-0.3l1-2.1l1.7-1l-0.8-5.1l1.6,1.1L96,586l-1.5-0.9l0.6-3.1l1-0.1
	l-0.2-0.3l-0.7-4.5l0.3,0.4l4.2-3.4l-0.2-1.3l0.3-0.2l-0.7-4.5l-4.1-3.2l-2.4,0.3l-0.4-0.5l-0.5-3.5l-4.9-3.3l-8.3-7.9l-2.9,0.4
	l-0.6-4l-7.9,1.3l-0.8-5.4l-1.6-11.1h0.1l-1.2-8h1.8v-3.5l5-0.7l0.7-0.6v0.2l0.9-0.1l0.4,0.4l0.7-0.5l13-1.1v-0.2l12.5-0.9
	l-0.9-10.5l7-0.6l-0.5-6.5l3.3-0.3l-0.1-0.7l3.1-2.7l9.3-7.8l-4.2-5l5.5-1v0.2l6.8-1.5l0.1,0.5l1.9-0.2l5-3l4.4,7.7l-2.7,1.5
	l3.9,9.3l6.3-3.6v-0.1h0.1l4-2.3v0.1l22.3-10.2l-0.1-0.3L177.3,478.1z M59.7,250.7l0.3,0.2l0.1,1.7l-1.1,2l-0.2-0.1L59.7,250.7z
	 M37.8,365.8l-5.9-4.8l1.1-2.1l6.5,3.7L37.8,365.8z M45.7,308.1l-2.5,4.1l-5.2-2.9l0.3-0.5l-3.4-1.9l-0.1,0.1l1.9-3.7l0.2,0.1l3.9-7
	l8.6,4.8l-3.8,6.9H45.7z M93.8,575.4l1.2,1.4l-2.6,0.3l-0.3-1.5L93.8,575.4z M160.5,385l0.2,0.4l-1.6,0.2L160.5,385z M161.5,317.2
	l0.6,2.7l-2.7,1.2l-0.8,0.5l-2.1-4.1l-2.8-2.1L161.5,317.2z M151.8,340.2l1.2,0.7l-0.2,0.8l-2.1-1.4L151.8,340.2z M129.8,344.4
	l0.2-0.5l-2-0.5l0.9-2.5h1.8l0.1-2.1l-1.4-2.7l0.3-0.8l1.6-1.4l2.4-5.8l-0.5,0.1l2-5.9l2.1-0.6l3.6-3.9l-0.1-1l-0.3-0.4l0.3-1.3
	l-2.5,0.4v-0.6l1.6-2.5l11.3,2.4l-0.2,0.7h-0.1h-0.1l-1.4-1l-2.6,6.8l0.5,0.1l-1.3,4.3l0.7,0.4l-0.9,0.1l-1.3,7.6l6,6.2l-1-0.7
	l-2.5,5.1l-11.5,1.8L129.8,344.4z M130.7,378.3l0.7,0.8l2.6-1.1v0.2l1.4,0.5l1-0.1h0.1l1.9,3.4l1.3-0.2l0.3,1.2l5.2,1.1l1-4.5
	l-3.6-1.3l0.3-1.2l-0.5-0.9l17.1-1l-1.4,1.9l0.9,8.5l-5.2,0.8v2.4l-7.9,1l-1.5-1.2v0.3l-1.4-1.3l-7,3.2l-2.5-4.2l-0.5-0.3l0.6-0.5
	l-1.9-2.2l1.4-0.5v-3.3l-2.9,0.5l-0.2-1.5L130.7,378.3z M101.9,381.6l-3.5-3.1l-0.2,0.1v-0.4l0.2-0.3l0.5-1.7l1.8,1l3-0.1l5,2.3
	L101.9,381.6z M112,378.4l-2.8,0.9l0.1-0.5l1.7-0.5l0.4-0.5h0.6l-0.2,0.2L112,378.4z M148.7,432.3l-8.3,1.6l0.7,3.7l-6.3,4.2
	l1.3,2.8v0.1l-6.2,3.6l-2.8-0.1l0.6,1.6l-1,0.5l-2.3-0.1v1.2l-6.3,2.2l0.1-1.3l3.4-0.3l0.2-4.3l-0.4-0.4l-0.6-4.3l8.9-11l-5.1-5.3
	l0.9-1.1l-6.3-10.2l0.1-0.4l-0.4-0.4l0.1-0.7l-0.9-0.1l-5.5-8.6l6.2-7.4l0.5,0.4l4.4-3.1l4.6,0.3l4.9,10.8l2.1-0.6l1.6,4.6l-0.5,0.8
	l1.2,0.7l-0.8,0.1l0.2,3.1l0.6-0.1l0.9,1.5l-0.8,0.2l-3.7,5l-2.5,1.3l0.2,1.1l-0.3,0.4l1.7,3.5l2.9-1l0.7,0.3l0.1,0.6l-1.3,0.3
	l0.7,5.1l1.2,1.9l1.8-0.8l2.7-3.7l-0.2-1.3l1.1,0.4l4.2-1.3l1.8,2.3L148.7,432.3z"/>
</svg>
