<?xml version="1.0" encoding="utf-8"?>
<!-- Generator: Adobe Illustrator 19.1.0, SVG Export Plug-In . SVG Version: 6.00 Build 0)  -->
<svg version="1.1" id="Layer_1" xmlns="http://www.w3.org/2000/svg" xmlns:xlink="http://www.w3.org/1999/xlink" x="0px" y="0px"
	 viewBox="0 0 1227.4 847.4" style="enable-background:new 0 0 1227.4 847.4;" xml:space="preserve">
<style type="text/css">
	.st0{fill:#FFF900;fill-opacity:5.000000e-02;stroke:#000000;stroke-linecap:round;stroke-linejoin:round;}
	.st1{fill:#3C84FF;fill-opacity:5.000000e-02;stroke:#000000;stroke-linecap:round;stroke-linejoin:round;}
	.st2{font-family:'OpenSans';}
	.st3{font-size:49.0445px;}
</style>
<g>
	<polygon class="st0" points="324,498.1 324.1,499.4 326.6,500.1 326.8,501.1 326.2,501 326.6,501.7 325.7,501.9 327.5,503.2 
		327.5,503.1 328.3,504.2 336,509.1 351.5,496.2 362.1,494.6 362.7,493.4 363.2,493 375.3,491.1 375.6,490.3 376.3,490 379.8,483 
		380.3,483.2 381.6,477 381.2,476.8 383.1,470.5 382.6,470.3 383.1,468.1 383.2,467.1 383.8,466 383.1,465.6 383.2,462.8 
		383.8,458.1 382.8,457.7 381.1,451.7 381,451.7 381.1,451.5 376.1,448.4 375.3,449.9 372.8,448.4 367.2,445.3 362,442.5 362,442.4 
		361.5,442.1 347.6,434.4 339.3,429.8 337.8,432.8 337.2,438.5 333.6,436.5 332.5,444.7 332.5,444.8 332.2,445.5 333.2,445.6 
		332.9,451.4 332.6,451.3 331.9,458.6 331.8,458.6 328.9,478.2 328.7,478.2 328.3,479.7 327.1,480.3 328.4,481.1 327.9,481.5 
		328.2,481.8 327.3,482.4 327.8,482.7 327.5,482.8 328,483.7 327.9,484 326.8,484.6 326.1,484.8 326.5,485.3 326.1,485.5 
		327.2,486.9 326.4,490.6 325,491 326.1,491.7 326,492.1 325.9,492.2 325.7,493.3 325.1,493.2 324.5,496 324.3,496 324.4,496.1 
		324.8,496.5 324.7,497.3 	"/>
	<polygon class="st0" points="489.1,520.2 479.4,524.2 483.2,517.4 479.6,518.6 478.8,517.9 476.7,518.5 472,527 476.8,525.4 
		478.7,527.3 478.3,527.4 484,532 485,537.2 491.2,536 490.9,533.9 490.7,533.2 492.2,532.5 	"/>
	<polygon class="st0" points="67.2,804.7 64.6,805.6 64.3,804.4 62.1,805.2 61.5,805.6 57.6,806.6 59.6,814.6 59.2,814.6 
		59.4,815.4 59.1,815.4 60.5,818.7 67.3,816.7 70.6,815.8 68.4,810.1 	"/>
	<polygon class="st0" points="162.6,741.6 169.5,749.9 179.4,741.8 172.5,733.4 	"/>
	<path class="st0" d="M392.5,340.4l7,3.7l-3,5.4l10.7,5.9l-6.5,11.8l16.4,9.3l6.2-6.6l2.6-6.3l-11.5-6.4l1.9-2.3l-1.2-1.4l-3.4,2.2
		l-1.7-1l1.7-3.1l17.6,9.7l3.1-1.6l0.5-0.9l0.6-10.1l-1.9-5.2l2.2,1.2l1.2-0.4l0.2-0.5l2.7,1.5l-1,1.8l4.8,2.6l5.7-10.5l-7.9-4.6
		l3.7-8.1l-0.4-2.1l-0.4-0.2l1.3-1.5l-3,0.6l-10.6-5.8l-1,2.2l-2.7-1.5h-0.3l0.1-0.2l-6.7-3.7l-0.1,0.2l-0.8-0.4l0.1-0.3l-2.1-1.2
		l-0.2,0.3l-0.4-0.2l-1.7-0.9l-6-3.4l0.6-1l-4.7-2.8l-3.2,6.5l0.2,0.1l-0.5,0.9l-1.1-0.6l0.1-2.5l-1.9-0.2l-1.3,8.1l0.9,0.2
		l-0.4,0.8l-0.3-0.2l-2.1,3.8l-1.7-0.9l-7.7,15l7.6,4.3L392.5,340.4z M428.8,320.3l-1.1,2.4v-1.3l-0.3-0.1l-0.1-0.9L428.8,320.3z
		 M420.1,336.5l0.5,0.3l-0.1,0.3l-0.6-0.3L420.1,336.5z M400.8,322l1.8,1l-1.2,2.2l-1.8-1L400.8,322z"/>
	<polygon class="st0" points="389.3,387.8 380.7,403.4 390.4,408.8 390.4,408.9 394.8,411.9 395,411.4 398.9,413.6 401,412.1 
		401.1,412.1 401.6,411.6 407.1,404 407.3,404.2 407.9,403 408.3,402.9 408.8,402.2 408.7,402.2 409.5,401.3 409.1,401.2 
		410.4,399.4 	"/>
	<polygon class="st0" points="372.9,412.2 377.8,403.4 371.2,399.7 381,381.9 366,373.2 363.8,377.2 361.4,375.7 355.8,386.6 
		357,387.4 350.3,399.7 	"/>
	<polygon class="st0" points="161.2,594.9 162.2,594.6 162.1,592.3 161.5,592.5 161.1,591 160.6,591.5 159.7,589.9 159.5,590.1 
		159.4,589.7 156.3,592.7 156.7,597.4 157.8,598.4 162,597.2 161.8,595.1 161.1,595.3 161.2,595 	"/>
	<polygon class="st0" points="156.3,748.3 156.5,748.2 155.2,746.4 144.4,752.8 147.4,755.1 146.9,755.2 147.9,757.9 152.6,755.4 
		157.4,752.2 157,751.3 157.7,750.9 	"/>
	<polygon class="st0" points="149.4,614.3 149.9,625.2 160.6,625.8 160.2,614.9 	"/>
	<polygon class="st0" points="497.9,567.7 501.7,574.5 505,572.1 503.1,564.3 	"/>
	<polygon class="st0" points="490.8,265.7 491.3,265.1 503.7,272.4 507.4,268.1 479.4,250.9 473.1,262.9 480.3,268.7 	"/>
	<polygon class="st0" points="92.1,740.8 92,740.7 94.2,740.4 90.2,729.2 88.1,730.1 88.7,731.7 88.5,731.8 83.2,730.4 80.1,731.2 
		80.5,732.2 79.7,732.3 83.7,743.6 87.4,742.4 	"/>
	<path class="st0" d="M74.9,786.6l0.1,0.5l-3.6,0.9l0.2-5.2l-3.7-0.3v-2.6l-3.7-0.4l-3.4-0.2l-0.2,6.7l2.6,1.4l-0.4,1.9l0.5,1.5
		l1.4,1.5l3,0.3l2.4,4.2l2.7-1.1l1.7-1.5l-0.5-1.3l1.5-2l0.1,0.3l2.5-0.3v-1.6l-0.7-3.4L74.9,786.6z M69.8,790.7l0.5-0.1l0.8,1.4
		L69.8,790.7z"/>
	<polygon class="st0" points="91.1,777.4 85.2,777.3 84.9,789.7 87.4,789.9 91.1,788.2 91.1,789.4 107.5,789.3 107.5,773.6 
		91.1,773.6 	"/>
	<polygon class="st0" points="127.6,769.8 127.5,769.8 127,767.4 126.6,765.8 125.9,762.9 123.8,763.6 123.6,762.6 119.4,763.7 
		119.4,763.8 117.6,764.3 118.8,767.2 116.9,770.3 117,770.6 116.8,770.6 118,773.3 119,772.7 120.8,775.2 121.8,774.8 122.2,776.3 
		128.3,773.8 127.9,771.4 	"/>
	<path class="st0" d="M475.8,390.1l3.3-3.6l-4-3.6l-0.5,0.6l-2.6-2.3l-1.3-1.1l0.6-0.7l-5.6-4l-3.1,3.5l-2.6-2.3l0.1-0.2l-4.5-4.1
		l0.2-0.2l-1.2-1.1l3.6-4.2l-4-3.6l-3.6,4.1l-0.2-0.1l-3.7,4.4l0.1,0.1l-0.9,1.7l-0.1-0.1l-2.9,2.6l-0.1-0.1l-3.7,4.3l0.3,0.3
		l-1.6,2l-1.2-1.1l-3.4,3.9l-1.6-1.2l-0.3,0.9l-0.3-0.6l-3.3-1.4l-0.4,0.9l-1.5-0.6l-2.7,2l-0.8,1.3l-0.1-0.1l-0.8,1.6l0.1,0.1
		l-2.1,5.1l4,1.6l-1.1,1.8l-0.1-0.1l-1.7,2.5l-2.1-1l-2.7,5.6l4.1,1.8l5.4,3l-0.2,0.2l10.7,6.3l0.1-0.1l3.1,1.9l-0.1,0.1l6.3,4v-0.1
		l3.1,1.9l-0.4,0.6l7.3,1.1l1-1.6l0.1,0.1l0.9-1.7H457l1.3-4.3l-0.3-0.2l5-11.2l-1.5-1v-0.1l1.7-2.8l1.4,0.3l1.6-1.8l0.1,0.1
		l4.5-4.2l1,0.5l0.7-1l0.1,0.1l1.4-1.9l7.3-1.1L475.8,390.1z M456.5,401.3l-2.2-1.4l0.1-0.1l2.7,0.6L456.5,401.3z M461.2,397.9
		l-2.8-2.7l1.3-1.3l2.8,2.6L461.2,397.9z"/>
	<polygon class="st0" points="456.7,295.9 446.9,294.3 445.1,305.4 454.8,307.5 	"/>
	<polygon class="st0" points="510.5,555.7 510.7,554.8 506,555.7 506.1,556 505.7,556.1 506.6,560.4 507.2,563.3 513.1,562.1 
		511.8,555.5 	"/>
	<polygon class="st0" points="542.5,480.8 549.1,487.1 550.3,486.8 555.8,490.1 556.5,489.2 557.6,488.7 552.3,479.3 546.6,475.4 
		544.3,476.4 542.3,477.3 544.3,480 	"/>
	<polygon class="st0" points="476,306 477.4,298.6 468.7,296.9 466.3,310.3 474,311.7 	"/>
	<polygon class="st0" points="473.6,448.7 467.4,458.1 468.9,459.2 475.2,449.6 	"/>
	<polygon class="st0" points="459.9,469.4 467.3,478.2 471.6,472.3 462.3,465.8 	"/>
	<polygon class="st0" points="624.2,570.1 620.5,570.2 620.5,571.2 619.7,570.9 618.5,576.3 620.1,575.6 621.4,578.7 625.5,578.6 	
		"/>
	<path class="st0" d="M563,510l3.6-1.5l0.6,1.6l1.7-0.7l0.2,0.6l6-2.1l-0.7-1.8l9.5-3.4l-1.5-3.9l4.1-1.3l-3.1-8.1l-6.2,2.1l0.6,1.7
		l-4.5,1.7l-1.5-2.9l1.5-0.6l-0.6-1.3l4.7-1.9l-1.8-5.7l-4.7,1.6l-0.3-3.9l-6.3,0.3l0.3,5.6l-0.2,0.1l0.4,2.4h0.5l0.6,1.7l-0.9,0.4
		l-1-2l-5.8,2.9l0.7,1.4l-4.9,0.5l-0.4-1l-3.6,0.9l-3.3,0.9l-0.7,2.1l0.1,0.9l-1.3,1.3l0.1,0.3l-4.7,1.6l2.4,7.2l-1.5,0.6l0.1,0.4
		l-10.5,4.2l-0.4-3.5l-0.9,0.2l-0.8-4l-8.1,1.7l0.5,2.6l-2.1,0.3l-0.1-0.4l-6.3,1.4l0.1,0.2l-1.9,0.5l-0.2-0.7l-9.8,1.9l2,9.1
		l1.1-0.3l0.6,3.2h-0.2l0.2,1.2l-3.9,1.3l0.8,4.6l0.9-0.4l0.6,3.1l9.2-2.4l-0.1-0.6l2-0.5l-0.1-0.3l0.2-0.1l0.1,0.3l0.8-0.1l2.5,6.6
		l13.7-6.1l-1.9-5.1l5.5-2.1l-0.5-1.3l11.1-4.1l-0.9-2.7l6-2.2l-0.8-2.3l1.2-0.5l1.3,3.2l-0.2,0.1l2.9,8.2l6.1-2.2l-1.9-5.2l5.4-2.1
		L563,510z M560.7,496.4l-0.6,0.2l-0.2-1.7L560.7,496.4z M556.8,509.5l-0.1-0.2l0.6-0.2l-1.1-3l2.4-1V505l1.6-0.3l1.2,3.1
		L556.8,509.5z"/>
	<polygon class="st0" points="577.6,518.4 582.1,522.4 588,515.7 583.3,511.5 	"/>
	<path class="st0" d="M417.8,283.8l0.2-0.3l3.3,1.8l0.9,0.5l-0.6,1.1l2.6,0.1l5.2,2.8l2.9-5.4l1.8-1.1L433,283l4.2-8l-4.6-2.5
		l0.3-0.5l0.1,0.1l4.6-8.6l7.2-3.4l-0.2-0.5l0.6,0.4l5.4-9.7l-0.1-0.1l3.8-6.1l0.1,0.1l1.3-5.7l-0.5-2l-0.4-0.5l3.7,1.6l0.7-2.6
		l-1-1.2l7.5-13.7l0.4-0.1l4.8-11l-0.7-0.3l1.4-4.8l-0.5-3.2H471l0.5-8.9l0.3-6.7l-0.1-9.4l-2.7-1.1v-0.1l-3.9-1.6l0.2-1.1l-12-3.8
		l-2.5,7.7l0.8,0.3l-5.6,18.8l0.6,0.1l-1.3,5.7l-0.8-0.1l-2.2,10.4h-0.1l-6.3,14.9l-0.8-0.4l-7,11.6l1.5,0.8l-0.9,2.1l-0.5-0.5
		l-10.1,22.1l-1.8-0.6l-1.7,5.6l-3-1l-3.1,9.8l1.5,0.5l-1.5,2.9L417.8,283.8z M447.9,234.2l-0.8-0.8h0.3l0.9,0.4L447.9,234.2z
		 M446.3,224l0.5,0.5l0.5-2.4l4.3,2.2l-0.7,1.3l1,0.7l-1.7,1.6l-4.5-2.6L446.3,224z M441.2,233.4l1.9,1.1L442,235l-1.3-0.7
		L441.2,233.4z"/>
	<polygon class="st0" points="500.5,415.9 501,415.7 501.7,415.2 500.6,406.3 494.2,407.3 495.8,415.6 	"/>
	<polygon class="st0" points="588.3,539.8 586.7,540.1 586.6,539.7 581.6,540.2 581.5,537.2 577.9,537.6 577.9,538 576.3,538.1 
		576.3,538 574.7,536 573.8,538.7 574,539.8 572.1,540.5 571.5,539.3 566.9,539 568.5,541.8 566.4,542.6 568.2,546.1 575.4,546.5 
		575.3,551.1 580.8,551.8 582.4,552 582.4,551.9 583.5,552 583.5,551.9 583.7,551.9 583.8,552.1 586.2,551.9 588.8,552.3 
		588.9,551.3 590.3,551.5 590,549.7 590.3,549.8 590.5,548.1 591.1,548.2 591.2,543 588.7,543.2 	"/>
	<polygon class="st0" points="484.9,333.5 489.1,334.2 489.6,333.8 495,332.2 494.9,328 493.4,326.2 493.3,326.2 493.1,325.9 
		492.6,325.8 491.3,324.3 490.7,324.3 489.8,323.1 490,321.3 489,319.5 489.5,314.5 480.7,315.5 477.8,319.3 478.7,321.3 
		477.4,322.7 476.3,329.7 474.3,332.1 476,335.4 476.6,334.6 476.6,335.6 479.1,334 479.1,334.2 483,333.3 	"/>
	<polygon class="st0" points="500.9,444.8 502.9,444.2 501.4,439.1 497.9,438.8 495.5,439.6 496.3,440.2 494.9,441.1 495.7,443.7 
		490.1,443.7 490.1,453 500.9,453 	"/>
	<polygon class="st0" points="52.4,793.1 52.2,793.2 51.9,792.8 50.8,793.8 50.6,793.4 48.6,795.1 48.9,795.3 48.5,795.8 
		48.8,796.3 48.7,796.6 49.9,798.2 49.6,799.1 50.8,801.2 51.8,800.3 52.1,800.8 55.8,798.1 54.4,796.3 	"/>
	<polygon class="st0" points="370.3,584.6 370.9,589.4 378.5,585.5 377.8,580.7 	"/>
	<polygon class="st0" points="390.6,584.4 388.1,584.9 388.8,590.9 394.5,590.1 395.3,595.4 395.4,595.4 395.6,596.2 399.2,594 
		399,588.8 400,588.8 400,590.6 407.8,590.2 416.9,589.7 416.7,587.1 416.3,587.1 415.8,581.7 412.4,581.9 412,576.6 406.7,577 
		407.1,582.2 401.9,582.5 401.7,581.3 401.5,581.3 401.1,577.8 401.3,577.5 401.2,575.7 401,575.7 400.6,570.4 392,571.6 
		392.8,579.6 393,579.5 393.2,580.5 393.6,583.6 390.9,584 	"/>
	<polygon class="st0" points="373.7,598.4 374.1,602 371.4,602.4 372.1,608.4 380.2,607.3 379.8,603.3 381.2,603 380.5,597.4 	"/>
	<path class="st0" d="M392,690.2l-3.8,1.2l0.8-3.2l-4.1-3.3l-0.2,0.7l-0.3-0.2l-1.8,7.2l-1.1-0.2l1.1-4l-6.5-1.9l-1.4,5.2l-1.4,0.4
		l-0.3-5.2l-7.8,1l0.9,6.1l-6.3,0.9l0.8,5.5l5-0.7l0.8,5.3l-1,1.4l4.7-0.4v0.2l2.8-0.4l-0.3,2l6.5,0.9l0.7-6.1l2.8,0.4l0.1-1.7
		l3.4,0.7l0.9-5.2l7.8-2l2.5-0.8l-1.6-4.9L392,690.2z M376.3,699.7l-0.5-0.1l-0.3-2.9l-1.5,0.2l0.4-1.7l2.2,0.8L376.3,699.7z"/>
	<polygon class="st0" points="478.2,543.8 477.9,541.9 470.6,543.3 470.9,544.8 464.8,545.9 467.1,557 468.6,556.8 469.3,560.7 
		472.2,560.1 472.2,560.2 472.9,560.7 478.1,559.5 476.7,552 476.5,552.1 476.1,550.3 478.6,549.8 479,551.9 484.4,550.8 485,550.2 
		483.6,542.7 	"/>
	<polygon class="st0" points="416.2,600.7 408.7,601.3 408.9,604.8 403.9,605.1 408.8,611.1 411.7,610.9 411.3,606.6 416.7,606.3 	
		"/>
	<polygon class="st0" points="382.3,608.8 386,614.4 389,612.5 387.7,605.4 	"/>
	<polygon class="st0" points="377.1,612.3 370.7,616.4 375.9,620.8 380.6,617.7 	"/>
	<polygon class="st0" points="361.5,661.2 357.4,666.3 363.4,671.2 363.8,674.2 372.4,673.2 371.9,669.7 373.3,669.6 372.4,663.1 
		365.2,664.2 	"/>
	<polygon class="st0" points="440.9,676.6 441.5,678.3 454.1,677.1 448.6,672.7 	"/>
	<polygon class="st0" points="465.1,636.4 470,642.2 475,638.1 470.1,632.2 	"/>
	<path class="st0" d="M466.3,540.2l0.1,1.2l-0.6,0.4l0.5,1.9l7.2-1.4l-1.1-4.9l-0.9,0.2l-0.3-0.9l-4.6,0.7l-1.5-1l1.3-1.6l-0.9-0.7
		l0.3-0.4l-0.7-1.4l3-5l-3.5-5.8l2.9-5l-3.2-2.7l1.2-1.7l1.3,0.9l1.9-2.8l3,2.3l0.2-2.7l0.4-0.2l1.2-0.1l2.3-3.5l-5.6-4.3l0.5-0.2
		l-2.4-7.7l-4.2,1.1l-0.2-0.6l-0.7,0.9l-0.6,0.2l-1.6-1.1l-0.5,0.7l-3.4-2.7l-2.7,3.5l-1.8-1.3l-2.5,3.1l-0.4-0.3l0.3-0.6l-1.3-1
		l-0.8-1.2l3.1-4.1l-4.1-3.2l-2,2.6l-0.7-1.2v-0.1l-0.6-1.1l-2-1.3l0.5-0.2l-1.3-3.8l1.2-0.5l-2.8-7.9l-1,0.4l-0.1-0.2l-1.6-1.2
		h-0.4l-0.9-0.9h-0.1l-0.7-0.7l-0.1-0.7h0.1v-0.5l0.4-0.8l0.3-0.3l-3-6.7l-1.8-0.3l-0.2-0.5l-1.2,0.3l-0.1-0.1l-0.5,0.3l0.1-0.5
		l-2.7-0.4l-0.4-6.6l-4.6,0.7l-0.5-1.8l-0.3,0.1l-0.5-1.7l-15.4-7.9l-0.4,0.8l-1.1-0.1v-0.3l-3.6,0.7l-4.5,3.4l1.3,1.6l-0.2,0.5
		L394,452l-1.9,0.1l0.1,0.7H392l0.2,2.4l-0.5,0.1l0.8,1.7h0.2l0.2,0.3l-0.6,0.1l0.2,1.1l-0.5,0.1l0.3,2.3h0.3v1.1l-0.6,0.1l0.5,2.3
		l0.7-0.1l-0.2,1.8l-0.4,0.5l-0.8-0.3l-7.1,14.4l1.2,0.5v0.3l-2.8,6.3l0.5,0.2l-0.8,1.4l-0.2,1.7h-0.1v1.2h0.1v0.9l0.9-0.1l0.2,2.4
		l-0.5,0.4l0.1,2.2l-1,2.7l2.8,3.4l-1.9-0.1l0.5,7l4.8,0.3v0.1l4-0.6v0.1l0.4-0.1l0.2,1.1l-3.5,0.5l0.6,3.7l-0.2,0.1l0.3,1.8h0.1
		l0.2,1.1l-6.2,0.9l-0.9-6.1l-0.7-4.7l-9.9-0.5l0.2-3.2l-0.9-1.5l2-2.7H374l0.9-1.3l0.2-0.9l-0.5-0.4l0.1-0.2l-0.4-0.3l0.4-1.4
		l-2.6-0.1l-0.5-0.3l-0.2,0.2l-10-0.3l-0.1,1.1h-0.4v0.2h-0.6H360l-0.3-0.6l-0.2,0.6l-0.9-0.4v0.6h-0.1v0.1h-0.8v0.2l-0.9,0.2v0.2
		h-0.6l-2.6,1.6l-1.3-0.5l-1.2,0.8l-1.8,4.6l0.3,0.1l-0.6,1.3l0.2,0.1l-0.1,0.2l-0.1-0.1l-0.4,1.1h-0.1l-0.3,0.8h-0.1l-0.4,0.9
		l-0.6-0.2L345,515h-0.1l-0.3,0.9h-0.1l-0.5,1.8l-0.3-0.1l-0.8,2l-0.3,0.7l0.2,0.1l-1,2h0.1l-0.1,0.3h-0.1l-0.5,1.4l-0.5-0.2
		l-0.2,0.5l-0.4-0.1l-0.3,1l-0.5-0.2l-0.3,1l-2.1-1.8l-7.7,9.4l0.7,0.6l-3.5,2.9l-0.4-0.4l-1.5,3.8h-0.1l0.1,2.6l0.3,1.9h0.1
		l0.7,5.2h-0.1v0.2h-0.3v1.6l0.7,0.3l0.9,8.5l1.6,1.5l6.2,1.9l5.4-1.1l0.8-2.2l3.2-1.4l0.4-1l1.5,0.5l0.1-0.2l0.2,0.1l0.6-1.7
		l1.1,0.3l0.3-1l1,0.4l0.1-0.2l1.2,1.1l-2.3,2l-1,0.9l2.5,2l-0.5,0.7l-2.6-2.1l-0.5,0.4l-0.9,0.8l-1,0.9h-0.1l-1.1,1h0.1l-0.6,0.7
		l2.4,2v0.1l1.2,1.1l-3.5,4.6h-0.9l-1.1,1.5l-0.2-0.1l-0.9,0.5l-0.9-0.3l-1.2,0.2l-1.1-0.4l-0.7,0.2l-3.3-2.8l-2.6,2.2l1.1,0.6
		l-0.8,0.2l-1.5,1.4l-0.7-0.6l-1.7,3l-1,0.4l-0.7-0.5l-2.1,2.5l0.8,0.8l-4.6,6.9l-0.9-0.8l-4.1,5.3l-0.2-0.3l-0.6,0.7l-0.9-0.5
		l-0.1,0.1l-0.4-0.2l-2.7,4.1l-1.3,2.1l0.9,0.6l-0.5,1.7l-0.7-0.3v-0.3l-4.8-1.9l-1,2.1l3.4,1.4l0.1,1.3l-1.4,2l0.5,0.8l1.4,0.5
		l0.5-0.6l0.6,0.2l-0.7,2.2l6.4,2l-0.8,2.6l-0.9,2.9l3.5,1.2l0.8,0.2l3.8,1.1l0.4-1.3l0.4-1.4l1-3.1l0.2-0.5l-6.3-2l1.2-3.9l5.9,3.1
		l0.2-0.7l4.6-7.7l-0.1-0.1l1-1.2l7.4,5.5l7.2-5.2l9.2-6.3l-0.1-0.1l6.7-4.9l-4.5-3.5l-0.6-2l-4.8-3.7l5.6-7.1l0.7-0.9l4.2,3.4
		l0.3-0.4l7.9,3l1-1.2l1.1,0.9l-1.1,1.4l2,1.7l10.6-4.5l0.6-0.8l0.2-0.9l-1.1-3.8l-5.7-3.5l2-3.1h0.1l5.2-8.5l0.2,0.2l3-5.1l5.6,9.9
		l3.6,0.8l0.3,2.4h0.1l0.4,4.9l4.4-0.4l4-0.3l0.5,5.8l5.3-0.4l-0.5-5.8l15.9-1.3l3.5-0.3v-3.8l8.3-2.5v0.3l5.8-3v0.6l2.9,0.1
		l0.1-1.1l3.3-1.9l0.1-1.7l0.3-0.2h0.4l0.7-0.4l0.5-0.7l0.3,0.1l0.7,1.1l9.7-5.6h0.1v-0.1l0.7-0.4l-0.6-0.5l0.2-1.8l0.1-2.1l0.1-1.1
		l1.8-0.6l0.2-0.2l2.3,1.7L466.3,540.2z M331.3,554.8H331l-0.2,1.2h-0.2l-0.2,1.1v0.2h-0.1l-0.3,0.9l-1-6.1l1.4,0.8l0.1-0.2l1.2,0.9
		L331.3,554.8z M314,593.8l-0.4-0.5l0.5,0.4L314,593.8z M387.8,540.9l-4.5-1.2l-3.1-0.9l-2.3-4.2l2.9-0.4l3.7,1.1h0.3l4.1,1.1
		L387.8,540.9z M401,521.9l-0.4,0.6l0.5,3.1l0.3,2.1l-5.7,0.9l0.4,3.5l-2.8,0.4l-1-0.3l-1.1-6.5l-5.8,0.9l-0.5-3l9.7-1.6l0.1,0.4
		l12-1.8l-0.1-0.4l2-0.4l0.1,0.9L401,521.9z M410.3,518.2l0.3-2.5l-4.6,0.7l-0.2-1.3l0.4-0.1v-0.1l4.2-0.7v0.1h0.1l0.5-0.1l0.6,3.8
		L410.3,518.2z M415.4,507.6l1.5-0.2l0.6,3.6l-1.5,0.2L415.4,507.6z M425.7,518.2l-8.4,1.3v-0.2l3.5-0.5v-0.2l6.8-1l-0.6-3.8
		l4.9,3.6L425.7,518.2z"/>
	<polygon class="st0" points="430.7,592.2 431.2,597.6 438.7,597 438.3,591.5 	"/>
	<polygon class="st0" points="411.2,682.2 410.8,678.9 410.4,678.9 410.1,677.7 410.2,677.7 409.8,675.7 409.7,675.7 402,676.8 
		402.4,679.6 401.4,679.7 401.5,680.2 400.7,680.4 399.6,679.9 399.5,680.6 396.8,680.9 397.6,686.3 402.5,685.6 403.4,692.2 
		406.9,691.6 406.9,691.8 413.6,690.9 412.5,682.2 	"/>
	<polygon class="st0" points="186.8,681.2 197.8,681.6 198.5,668.6 187.3,668.6 	"/>
	<polygon class="st0" points="416.5,634.2 412.4,634.8 413.9,644.7 419.9,644.1 	"/>
	<polygon class="st0" points="414.5,681.8 415.1,691.2 422,690.1 421.2,680.8 	"/>
	<polygon class="st0" points="418.7,654.3 423.1,659.4 430.4,653.2 426.1,647.9 	"/>
	<polygon class="st0" points="263.3,658.2 269.8,669.2 279.1,663.6 272.6,652.4 	"/>
	<polygon class="st0" points="256.5,669.4 260.8,681.2 270.9,677.7 266.5,665.8 	"/>
	<polygon class="st0" points="274.9,644.2 273.9,642.3 274.7,641.8 275.8,642.1 276.7,640.2 274,636.2 274,635.9 273.1,635.3 
		272.8,634.6 272.3,634.4 272.9,633.8 272.4,633.4 272.4,633.3 271.3,632.3 271.1,632.6 270.6,632.2 270,631.4 269.2,631.9 
		264.8,623.8 265.1,623.6 263.2,619.2 262.6,619.3 262.3,616.2 258.7,616.6 260.6,612 260.7,612 261.5,602.8 254.6,601.4 
		254.5,598.3 257.5,596.4 257.9,598.8 265.8,598.4 265.6,597.7 269.7,598.3 267.5,596 267.4,595.5 267.3,595.5 267.5,595.4 
		266.8,594.9 267.8,594.6 267.7,594.5 267.9,594.5 260.5,588.2 259.4,588 259.3,587.5 254.5,585 253.9,585.1 253.2,583.9 247.1,588 
		245.3,581.9 243.4,582 242.9,587 240.1,588.6 243.4,594.7 243.6,594.7 243.6,598.8 233.6,601.6 237.2,607.3 237.1,607.4 
		238.7,610.9 239.7,610.6 242,611.3 248.2,606.1 254.1,605.9 253.5,607.3 253.8,608.3 253.7,608.8 254.1,608.8 253.1,611.4 
		253.7,611.8 252.7,614.1 248.6,609.3 246.6,608.1 240.1,618.6 243.6,620.6 243.8,619.7 244.6,619.8 244.7,619.4 250.1,619.8 
		252.5,616.2 254.9,617.3 255.1,619.2 250.8,620.9 251,621.4 246.5,623.3 247.1,624.8 246.9,624.8 246.8,625.3 246.6,625.2 
		246.6,625.3 245.7,624.7 244.8,630.2 235.6,630.3 234.3,631.8 233.3,642.8 244.3,643.1 245.2,630.6 246,630.7 245.9,631.2 
		247.9,631.4 248,631.4 249.4,631.6 249.8,629.1 253.3,627.6 253.4,627.7 254.4,627.4 257.2,633.4 252.6,635.9 256.5,643.6 
		255.9,643.9 257,644.6 258.5,647.2 262.8,654.4 272.4,648.8 270.4,645.4 271,644.9 273.2,649.1 275.3,647.7 275.4,647.8 
		279.1,646.1 277.2,642.8 	"/>
	<polygon class="st0" points="249,643.2 241.6,653.4 250.6,660.1 258.1,649.6 	"/>
	<polygon class="st0" points="299.3,427.2 304.3,416.7 303.6,416.3 305.4,412.6 303.8,410.8 303.7,411.1 302.6,410.5 300.6,409.5 
		299.1,408.8 299,408.8 297.4,407.9 297.2,408.3 296.5,408.1 296.2,408.8 295.5,409.1 295.7,409.7 295,410.8 295.2,410.8 
		294.7,411.6 293.4,411.5 294.1,412.7 294,412.7 294.1,412.8 294.2,412.9 293.8,413.9 294.3,414.1 294.1,414.5 295.1,415 291,423.1 
			"/>
	<polygon class="st0" points="232.1,670.1 241,676.4 248.3,665.8 239.5,659.6 	"/>
	<polygon class="st0" points="205.6,636.8 207,649.6 218,648.3 216.6,635.6 	"/>
	<polygon class="st0" points="233.6,618.2 233,613.6 233.7,613.5 234.2,613.1 234.4,612.5 234.5,608.4 226.6,607.3 225.6,600.3 
		224.5,600.5 224.1,599.3 222.5,590.3 217.3,591.1 217.2,591 214.8,592.2 214.9,592.3 214.1,593 213.9,593 212.6,594.2 214.9,596.2 
		215.2,596.1 216.4,600.6 216,600.6 216.3,602.7 213.7,603.1 213.2,600.5 213.2,600.4 213.4,599.2 212,599.3 211,596.2 209.8,597.1 
		209.2,596.1 207.1,596.7 207.1,596.8 204.6,597.2 204.5,596.9 199,600 199.7,601.3 195.7,603 196.1,603.8 196.1,604 189.8,600.3 
		186.7,606 192.9,609.6 196.1,604.1 196.3,607.8 196.1,607.8 194.7,610.6 195.8,611.3 198.1,615.2 197.8,615.6 198.4,616.6 
		200,617.2 200.1,618.2 200.4,618.3 200.4,618.4 195,619.1 195.1,618.8 184.3,618.4 183,630.6 184,630.7 182.3,638.9 193,641.4 
		194.9,631.9 202.2,631.3 200.9,619.6 201.6,619.4 201.8,619.6 202.4,619.6 203.7,623.8 206.3,622.3 207.3,623.3 210,622.8 
		210.4,622.6 210.9,625.7 215.1,625.1 215,624.8 216.6,624.2 216.7,624.8 221.7,624.2 221.5,622.7 222.3,622.6 225.3,622.2 
		225.3,621.8 227,621.6 226.6,619.4 	"/>
	<polygon class="st0" points="356.1,699.1 347.9,700.6 348.5,705.6 350.8,705.7 349.4,709.2 354.6,705.6 355.8,705.7 355.9,705.3 
		356.8,705.2 356.6,703.7 358.8,698.6 	"/>
	<polygon class="st0" points="345.4,697.2 345,694.1 344.9,694.2 344.5,690.7 341.9,691.2 341.8,690.8 340.7,691.2 340.6,691.1 
		339.8,691.2 339.7,690.6 337.9,690.8 337.9,691.2 336.9,691.4 336.7,691.1 332.4,695.6 331,695.8 331.7,700.3 333.3,702.2 
		334.6,701.9 335.6,702.7 335.7,702.6 335.8,702.8 340.8,705.2 340.9,705.2 342.4,705.7 343,705.9 342.7,705.2 346.9,706.9 	"/>
	<polygon class="st0" points="374.7,663.3 375.2,666.8 375.1,666.8 375.2,667.2 375,667.1 375.5,670.9 375.8,670.9 375.8,671.4 
		376.8,672.2 381.2,671.8 381.2,671.6 382.6,671.8 383.1,667.2 382.8,667.2 383.9,665.4 381.2,665.9 381.6,662.3 	"/>
	<polygon class="st0" points="333.2,656.7 327.5,652.9 325.2,656.3 328.1,658.3 328.9,657.3 331.6,659.2 	"/>
	<polygon class="st0" points="325.7,617.9 328.5,608.8 330.5,606.3 326.3,602.9 323.8,606.3 320.9,615.6 323.3,616.9 323,617.6 	"/>
	<polygon class="st0" points="337.8,652.4 336.4,651.4 334.6,649.8 332,653.6 335.8,656.8 339.6,654.2 338.6,653.4 338.3,652.9 
		338,652.7 	"/>
	<polygon class="st0" points="311.8,633.6 310.8,634.7 311.3,635.2 311.2,635.6 306.5,632.6 306.9,631.3 310.5,634.6 311.8,633.2 
		307.5,629.2 308.1,627.2 303.7,625.7 303.1,625.2 305.6,616.1 305.5,616.2 306.8,611.8 303.1,610.3 302.3,611.3 301.4,610.8 
		300.2,612.6 300,613.8 299.2,614.8 299.3,616.4 297,624.2 298.9,624.6 297.2,630.6 301.3,631.8 301.3,631.6 305.4,633.1 
		302.6,637.6 306.1,640.1 304.5,643.3 303,644.2 303.8,646.6 305.2,645.6 306.3,646.8 305.7,647.4 308.7,648.8 312,643.4 310,642.2 
		310.9,640.6 313,642.1 315.5,638.3 315.8,638.4 314.1,642.2 317.3,644.2 317.7,643.3 320.2,637.6 312.2,632.2 	"/>
	<polygon class="st0" points="330.7,613.8 329,612.3 327.3,617.7 331.6,621.2 335.6,617.6 334.7,616.9 338.3,612.4 334.3,609.1 	"/>
</g>
<g>
	<polygon class="st1" points="1091.4,416 1105.6,416 1101.9,406.1 1099.7,404.7 1090.4,390.1 1089.7,390 1087.6,388.6 1081.2,392.8 
		1073.1,392.3 1072.4,399.1 1076.3,399.4 1074.9,406.8 1076,407.3 1072.4,407 1072.3,405.8 1070.5,406 1070.4,405.3 1066.7,406.6 
		1066.8,406.9 1054.3,411.3 1051.9,404 1051.3,404.2 1051.1,401.9 1049.8,401.3 1049.2,399.6 1050.4,399.2 1050.5,398.5 
		1050.9,398.5 1051.3,397.2 1051.2,397.1 1050.9,395.5 1050.3,395.7 1049.7,394.4 1049,394.9 1048.9,394.8 1049.5,394.5 
		1047.6,393.1 1046.5,393.4 1045.8,393.1 1045.1,393.6 1044.3,393.5 1044.4,393.3 1042.6,392.9 1039.4,396.4 1038,399.9 
		1037.7,399.8 1036.7,400.7 1036.7,402.4 1037.2,403.5 1038.5,404 1040.2,407.3 1040.4,409.5 1037.6,418.5 1040.1,419 1038.2,420.1 
		1039.4,421.4 1039.4,421.6 1040.2,422.3 1041.9,425.9 1044.5,427.6 1044.8,427.4 1044,431.6 1047.5,430.9 1061.8,437.3 
		1062.4,432.6 1064.7,431.1 1067.6,434.6 1071.9,431.2 1071.2,430.3 1073.6,428.3 1070.1,421.6 1074.2,421.8 1073.9,424.8 
		1074.8,424.9 1074.8,425.4 1076.8,424.9 1081.3,426 1080.3,422.3 1091.8,422.7 	"/>
	<polygon class="st1" points="1126.8,462.4 1109.3,469.3 1110.7,470.6 1115.1,483 1130.9,474.3 1127.2,467.8 1128.8,466.4 	"/>
	<polygon class="st1" points="1021.2,508.2 1022.3,516.3 1029.1,513.9 1026.2,507 1025,507.3 	"/>
	<polygon class="st1" points="1090,261.7 1090.3,261.6 1091.1,262.2 1093,262.8 1093,263 1093.4,263.4 1093.7,264.1 1093.7,264.5 
		1095.7,267.8 1095.8,267.8 1096,268.4 1095,271 1094.1,271.2 1094,271.5 1089.8,273.1 1093.8,282.7 1096.1,281.8 1100,288.2 
		1100.3,290.2 1100.1,290.4 1100.8,292.6 1101.9,292.1 1102.9,292.7 1104.5,292.7 1104.7,292.2 1106,291.3 1106.1,291 1107.6,289.9 
		1108,286.4 1107.7,285.6 1108.4,285.4 1107.6,282.3 1106.2,282.7 1105.5,281.6 1105.3,281 1105.5,280.4 1105.3,279.8 1105.5,279 
		1105.5,278.7 1105.7,278.2 1111.8,275.9 1107.8,266.4 1103.8,267.9 1103.7,267.8 1102.3,267.2 1099.4,264.1 1099.7,262.9 
		1099.5,262.5 1099.6,261.9 1099.2,261 1099.2,259 1099,258.6 1099,258.4 1099.7,258.7 1100.7,258.6 1101.6,257.8 1102.8,257.7 
		1101.7,253.1 1098.8,253.8 1098.3,256 1097.9,255.6 1097.1,255.3 1096.5,255.3 1095.8,255.6 1093.9,258.4 1093.5,258.7 
		1093.2,259.2 1091.6,259 1091.8,255.7 1087.3,257.4 1088.6,262.1 	"/>
	<polygon class="st1" points="1144.1,518 1142.3,512.5 1137.9,514.1 1136.2,509.8 1130.9,511.6 1129.3,505.5 1125.6,511.6 
		1123,513.7 1117.4,505.8 1108.7,514.6 1111.3,518.4 1116.5,516.9 1126.7,518.9 1126.6,518.8 1127.9,519 1125.2,521.7 1126.9,526.3 
		1129,525.6 1130.4,532.5 1145.9,522.5 1146.4,521.6 1144.7,517.7 	"/>
	<polygon class="st1" points="686,745.1 685.6,743.7 684.3,742.2 685.1,741.4 678.3,733 662.3,739.8 663.5,743 665.4,741.9 
		666,744.7 667.7,744.9 668.5,744.3 669.1,744.9 670,744.4 672.1,749.5 676.4,753.3 678.1,751.7 679.7,752.9 680.6,750 681.6,750.9 
		686.7,746.7 685.6,745.4 	"/>
	<polygon class="st1" points="1144.5,548.1 1145.8,548.5 1147,545.3 1147.8,545.5 1149.9,539.2 1139.2,534.9 1135.6,543.3 
		1136,547.5 1135.3,547.4 1135.4,549.6 1136,549.8 1136.8,553.3 1148.1,558.7 1143,550.2 1144.4,548.2 	"/>
	<polygon class="st1" points="1142.8,407 1137.9,400.2 1133.5,398.7 1133.3,398.7 1131.6,394.9 1129.9,393.4 1129.7,392.8 
		1129.4,392.6 1128.9,391.2 1123.4,392.6 1123,394 1114.1,396.9 1120.1,412.2 	"/>
	<polygon class="st1" points="1069.4,523.9 1049.6,531.5 1049,531.8 1050.3,536.2 1052.7,535.9 1052.8,536.8 1056.8,536.5 
		1056.8,536 1057.6,536.1 1057.1,534.9 1057.4,534.8 1057.2,534.2 1060.1,533.1 1059.8,532.4 1069.3,528.2 	"/>
	<polygon class="st1" points="1111.6,497.2 1109.5,490.3 1107.6,490.8 1106.1,485.9 1107.5,485.5 1106.6,482.4 1103.2,482.7 
		1103,480.1 1105,479.7 1103.4,475.4 1099.1,477.1 1099.4,478.7 1096.6,479.6 1096.8,480.2 1095,479.6 1094.7,481 1092.4,480.9 
		1089.7,479.1 1086.1,480.6 1092.1,494.9 1091.9,495 1094.8,500.3 1094.8,501.6 1095.7,503.4 1101.1,501.2 1100.4,499.7 1105,497.7 
			"/>
	<polygon class="st1" points="1073.5,522.9 1074.6,525.6 1076.7,522.4 1079.1,524.3 1085.2,515.1 1084.3,514.2 1079.6,500.8 
		1072,500.9 1070.9,488.2 1068.7,488.4 1065.2,480.4 1050.1,479 1051.3,486.9 1047.9,481.9 1033.5,489.7 1013.4,485.8 1015.3,488.6 
		1011.9,491.2 1012.8,492.5 1011.5,493.4 1010.9,495.9 1012.7,498.6 1012.4,501.4 1014.1,501.6 1013.8,504.2 1017.3,504.6 
		1017.5,503.5 1018,503.4 1018.3,504.3 1019.6,505.8 1019.9,507.4 1021.7,507.6 1036.1,499.8 1036.1,499.6 1037,500.1 1052.2,492.7 
		1052.3,493.1 1053,493.8 1054.4,494.3 1057.7,497.9 1058.4,503.3 1064.4,502.7 1072.7,523.7 	"/>
	<polygon class="st1" points="1032.6,544.8 1034.6,543.7 1034.6,543.6 1040.2,541.5 1038.6,536.5 1030.8,537.8 	"/>
	<polygon class="st1" points="1054.6,386.4 1067.6,388.1 1067.9,388.5 1073.7,389.7 1075.2,377.5 1076.4,377.6 1074.4,373.4 
		1075.7,373.1 1076,370.6 1089.9,372.4 1096.4,369.1 1092.1,361.6 1092.9,358.9 1092.5,357.2 1090.8,355.1 1085.3,353.2 
		1083.2,353.7 1073.2,351.8 1073.2,351.7 1069.2,349.9 1068.9,351.9 1067,350.7 1067.4,350.2 1065.7,349 1065.9,348.8 1061.6,346.1 
		1056.8,346.4 1057.9,349.5 1057.5,350.1 1056.1,351.1 1055.4,352.3 1061.4,368.5 1056.7,369.9 1058.1,374.3 1058.1,375.6 	"/>
	<polygon class="st1" points="1092.9,670.8 1079.9,672.1 1080.2,673.6 1075.6,672.2 1075,671.6 1074.5,671.6 1074.5,670.4 
		1072.4,670.9 1072.3,671.2 1055.9,682.4 1055.7,682 1031.1,687.1 1031.9,689.1 1030.4,689.2 1030.3,689.1 1024,688.4 1023.4,688.8 
		1023.2,688.8 1023.1,688.9 1022.2,689 1021.4,689.8 1021.3,690.3 1017,693.7 1016.6,693.6 1011.5,695.8 1017.4,709.6 1028.7,703.9 
		1036.6,700 1036.7,700 1073.2,686.3 1073.3,685.4 1073.5,685.3 1073.6,685.6 1075.7,685.2 1075.7,684.7 1096.1,680 1095.3,671.9 	
		"/>
	<polygon class="st1" points="1107.3,554 1104.1,550 1099.4,553.5 1098.7,556.7 1098.5,557 1098.3,557.4 1097.8,557.8 1099.5,546.6 
		1090.4,545.1 1090.5,542.2 1086.1,542.2 1086.3,543.9 1085.9,543.9 1085.9,544.4 1081.7,543.7 1084.3,548 1085.8,554.1 
		1085.6,554.5 1085.5,557.9 1088.3,558.2 1088.3,558 1089.5,558.1 1089.5,557.8 1091.8,558 1091.8,557.7 1092,557.8 1093,558.9 
		1093.3,557.5 1097.5,558 1097.4,558.1 1097.5,559.2 1097.3,559.4 1097.7,560.3 1097.7,563.1 1098.8,563.5 1099.2,563.8 
		1100.7,563.9 1101,563.5 1101.4,563.2 1101.9,563.3 1104,561 1103.9,560.8 1104.3,560.4 1104.4,559.8 1105.9,557.9 1105.8,557.1 
		1109,556.6 	"/>
	<path class="st1" d="M1108.9,523.8l-1.8,3.1l-1.4,0.3l-0.6,0.5h-0.7l0.2-0.1l-0.5-0.8l4-3l-0.5-1.3l-2.7-3.1l-0.7,0.8v-0.4
		l-0.7-1.1l-0.5-0.2l-0.2-0.4l0.4-0.7l-0.7-0.5v-0.3l-1.6-1.5l-1.6,2l-0.2-0.4l-2.8,0.5l0.1,1.1l-4,2.3l-0.2-0.3l-3.8,2.2l3.6,6.7
		l0.7,5.9l7.9-1.6l0.8-1h0.7l0.3-1.7l0.3-0.2l0.1-0.7l0.6-0.3l5,11l3-2.8l5.7-2.3l-7.4-5.8L1108.9,523.8z M1103.6,528.4l0.1-0.2
		l0.6-0.4L1103.6,528.4L1103.6,528.4z"/>
	<polygon class="st1" points="1125.8,563.1 1122.7,562.7 1122.6,560.9 1121.1,560.3 1117.2,566.3 1124.5,568.6 	"/>
	<polygon class="st1" points="948,394 951.6,390.2 955.2,386.3 942.9,374.9 935.7,382.6 	"/>
	<polygon class="st1" points="689.8,595.2 689.8,594.8 686.8,595.1 686.7,595.6 682.8,596.6 682.9,597.5 682.6,596.6 680.5,597.2 
		680.4,597 671.9,599.6 668.6,599.2 668.6,609.1 694.8,609.2 694.9,595.9 693.4,595.7 	"/>
	<polygon class="st1" points="765.3,614.9 762.5,615.2 762.6,614.7 763,614.7 762.6,611.9 762.4,611.9 762.5,610.3 762.4,610.3 
		762.4,608.2 760.7,608.1 760.3,604.6 761.1,604.5 761.6,604.7 762.9,604.4 762.8,603.7 763,603.7 762.8,601.1 757.4,601.6 
		754.8,600.5 752,601 752.3,599.8 744.9,601.2 744.8,601.1 744.2,601.2 744,600 741,601 741.6,603.9 741.3,604.5 740.7,604.8 
		738.7,604.6 738.1,603.8 737.5,600.6 741,599.9 738.3,588.2 723.3,587.8 727.1,608.2 732.3,609.1 734.2,610.4 734.9,610.4 
		736,610.1 737.3,610.4 738.5,610.1 739.2,610.8 740,611.2 741,611.1 742.7,612.1 739.7,617.1 741.6,617.7 741.4,618.2 748.4,618.6 
		749.1,619.7 750.3,619.3 752.1,619.5 752.9,619.2 753.2,618.4 753.3,617.9 753.6,617.4 755.7,618.9 756.7,618.8 756.8,619 
		761,618.4 760.8,617.4 765.5,617 	"/>
	<polygon class="st1" points="1168.3,557.5 1158.6,557.5 1159.9,559.5 1157.1,564.1 1159.6,566.3 1159.2,567 1159.1,567.8 
		1159.2,568.2 1159.2,569.8 1166.6,570.7 1166.5,569.9 1167,570 1168,571.5 1172.3,571.8 1171.2,568.4 	"/>
	<polygon class="st1" points="691.5,593.7 707.2,593.3 707.5,574.7 692.3,574.7 	"/>
	<polygon class="st1" points="1153.6,649.3 1151.2,643.7 1147.2,645.8 1147.1,644 1143.9,644.3 1143,645.3 1142.4,644.8 1142.3,645 
		1141.8,644.8 1141.5,644.9 1139.8,644.3 1139.4,644.4 1138.5,643.8 1136.5,644 1136.2,643.8 1132,643.5 1131.6,643.8 1129.3,641.8 
		1127.1,641.4 1127.4,638.6 1118.9,645.3 1118.9,646.7 1119.4,647 1119,652.5 1118.6,652.6 1117.7,663.4 1118.6,663.8 1118.4,664.2 
		1124.2,667.7 1124.4,668.3 1125.2,668.5 1125.6,671.7 1131.8,671 1132.3,670.8 1132.7,670.9 1135.3,670.5 1136,670.1 1137.2,670.1 
		1137.3,668.9 1137.4,669 1137.8,669.6 1138.8,669.5 1138.8,670.4 1152.2,670.7 1149.6,655.9 1150.6,652.9 	"/>
	<polygon class="st1" points="1158.3,492.2 1161.7,492.8 1163.6,487.3 1172,490 1171.9,489.4 1173.7,489.8 1166.1,461.6 
		1148.9,456.4 1145.3,459.3 1147.2,461.8 1146.1,462.6 1146.5,463.8 1156.2,475.8 1144,479.7 1147.3,491.3 1148.1,493.7 
		1148.4,493.2 1149.5,497 1151.7,496.5 1151.6,494.9 1154.2,493.8 1157.4,494.8 	"/>
	<polygon class="st1" points="923.3,337.3 924.2,337.8 924,338.1 925,338.7 924.7,339.3 927.3,340.8 926.8,341.7 929.5,343.2 
		930.4,345.1 931.3,344.6 935.7,347 937.1,346.9 938.7,347.5 938.8,347.4 939.2,347.7 940.2,349.9 948.1,354.9 950.9,355.5 
		953.8,354.8 963.9,342.9 972.4,340.6 975.6,341.2 983.6,346.3 983.7,346.1 983.9,347.1 998.5,349 999.1,348.7 1004.1,340 
		1004.1,337.7 1008.9,340.5 1008.8,340.6 1022.3,348.3 1024.1,349.3 1025.4,350.1 1039.9,323.5 1058.5,334.1 1060.5,330.4 
		1062.4,331.5 1063.4,329.6 1067.1,331.7 1067.7,330.7 1070.1,331 1072,332.1 1071,333.9 1080.1,339.1 1081.7,336.4 1082.7,336.7 
		1085.9,335.6 1084.6,331.3 1090.2,321.5 1082.6,317.2 1087.2,309 1070.7,299.9 1069.4,302.3 1069.1,302.1 1069.5,301.4 
		1067.8,300.4 1068.8,298.5 1065.1,296.4 1073.5,281.2 1064.4,276 1056,291.3 1053,289.6 1055,289.5 1053.5,280.9 1050.2,278.5 
		1048.2,279.9 1044.4,279.5 1044.5,280.2 1040,280.5 1040,281.6 1039.9,281.6 1039.9,282.3 1026.3,274.7 1022.6,272.6 1023,270.1 
		1021.2,271.8 1013.1,267.2 1011.6,266.3 996.4,258 994.6,260.9 986.1,255.8 985.8,254.9 979.7,251 979.9,250.6 981.8,251.9 
		982,251.6 982.4,251.8 982.5,251.6 983.5,252.3 983.3,252.7 985.6,254.1 989.4,248.2 987.6,245.3 992.5,241.8 994.7,243.4 
		996,241.7 996,241.8 995.5,242.6 995.8,243 995.1,243.8 995,243.7 993.3,244.6 993.8,247.2 994.3,247.7 993.3,250.4 995.1,249.2 
		995.7,250.1 994.5,252.2 1002.4,252.5 1002.2,248.8 1003.3,248.8 1003,244 1005.3,245.3 1005.3,245.2 1006.4,245.8 1005.1,260 
		1018.5,260.1 1016.9,251.8 1035.2,261.9 1043.4,247.1 1058.3,255.4 1067.7,238.8 1060.2,234.7 1068.6,219.5 1061.1,215.5 
		1065.2,208 1059.7,205 1058.7,206.9 1054.9,204.8 1053.9,206.7 1048.1,203.2 1048.1,203.1 1040.6,198.9 1041.7,197 1039.8,195.9 
		1040.8,194 1038.9,192.9 1039.9,191 1038,189.9 1039.1,188 1037.4,187.1 1038.1,185.9 1036.1,184.8 1035.5,182.6 1033.1,183.3 
		1024.4,178.1 1024.1,175.8 1024.4,175.1 1022.8,174.1 1013.5,191.1 1013.5,190.8 1010.8,189.5 1010.3,188.2 1007.8,187.3 
		1002.6,188.3 1002.7,189.1 1002.1,189.2 995,194.3 992.1,199.3 992.3,200.9 1001.1,198.9 1004.5,199.6 1005,202 1008.1,201.4 
		1006.4,204.4 997.8,219.4 994.6,217.9 994,218.1 993.2,214.1 992.2,213.6 991.1,213.7 987.6,218 987.1,217.6 986.5,217.6 
		985.2,218 978.6,215.7 978.8,215.3 968.9,211.4 969.8,208.9 969.7,208.6 971.9,203 972,203 972,202.9 972.4,201.9 971.9,201.7 
		971,192.4 970.9,192.4 971.8,186.7 971.9,186.7 971.8,174.2 966,172.2 966.2,171.3 953.3,167.6 952.6,170 952.5,170 950.8,176.2 
		954.5,177.1 955.7,177 956.3,177.6 952,184.4 951.6,184.1 951.1,184.1 949.2,183.5 947.3,190.3 947.2,190.3 944.2,200.2 
		943.2,200.1 941.6,206.9 941.4,207 938.1,215.2 938.6,216 936,223.3 936.3,223.4 934.6,225.6 935.8,226.7 939,227.6 938.3,228.5 
		939,229.3 933.4,227.4 925.6,241.2 934.2,248.9 942,243.7 948.6,232.5 948.4,232.4 948.5,232.1 952.5,233.8 953.8,235.4 
		955.3,235.7 954.7,237.1 951.8,245.9 951.6,245.8 946.7,253.1 946.2,252.8 940.4,262.8 939.7,262.3 932.7,273.4 933.9,273.7 
		933.3,274.8 933.1,274.7 925.5,294.1 927.1,294.8 926.9,295.7 925,295.3 923.7,298.4 924.3,304.8 924.1,304.8 925,319.4 
		925.1,319.4 925,319.6 924.9,327.4 925.7,327.5 924.8,329.2 924.6,331.9 923.3,332.9 922.5,334.3 924.4,335.4 	"/>
	<path class="st1" d="M1013.4,569.3l1-0.2l-0.2-0.9l1.8-1.1l-0.1-0.6h0.1l2.5-3.6l-0.2-2.7h0.1l-0.4-2.6l0.3-1l1-0.8l-1.3-8
		l-4.2,0.8l-0.3-0.2l-0.5-1.2v-0.4l-0.3-0.6l-0.1-0.4l0.4-1.2l-2.4-8.6l-0.8,0.1l-0.5-3.1l-2.4-2.7l-2.4-13.3l-8.8,3.8v-0.2
		l-0.9,0.5l-0.1-0.2l-5.7,3.8l-0.4-2.2l-2.1,0.4l6.6-4.6l-4.6-0.6l-0.1-0.1l5.1-0.9l-0.2-2.2h0.1l-0.1-1l-2.5-3.9l-1.5,0.4l-1.9-1.7
		l-0.3,1.8l-1.6-4.8l0.4-0.2l1,1.8l0.2-0.1l0.1,0.2l8.4-4.1l-0.4-0.6l3.6-0.4l-2.4-5.1l1.2-0.8l-0.2-0.9l7.3-0.6l-5.3-18.1l4.9-3.9
		l3.1,4l0.4,1.8l6.5-6.1l-0.3-0.1l3.5-4.1l-0.9-1.4l2.9-1.9l1.2-1.9l-20.5-4.6l-0.2-1.1l1.8-4.6l-0.3-0.1l0.3-1.2l-1.6-1.8l5-1.4
		l0.2,0.4l1.1,0.8l2.4-0.8l0.1,1l2.1-0.2v0.2h-0.2l-0.7,0.9l0.1,1.1l1.1,0.8l5,0.1l1.4-0.6l0.5,0.9l2.5-1.2l0.5,0.9l1.8-0.5l0.2-1.5
		l4.1-1.8l-1.2,2.5l0.1,0.9l-0.4,0.6l1,3.4l-1.6,0.4l-1.1-1l-1.5,1.2l0.4,1.4l-2.2,1.1l1,2.4l0.2,1.8l0.1,0.5l-4,2.4l1.4,4l3.1,1.6
		l1.1-0.8l1.6-0.2l5.3-2.9l-0.4-0.7l8.2-4.1l-0.6-1.1v-0.4l2.5-3.1l-1.8-0.6v-0.5l2.7-0.8l-1.1-3.2l-0.7,0.1v-0.1l0.5-0.6l-3.1-7.8
		l-3.4,1.2l0.5,1.2l-1.4,0.8l-0.1-0.2h-0.2l0.1-1.3l-3.7,1.4l-0.2,0.3l-0.6,0.4l0.8-6.2v-0.2l-2.3-0.9l0.3-0.5l-0.1-0.4l0.2-0.3
		l-0.5-0.7v-0.2l-0.1-0.2l0.1-0.4l-0.7-2.7l-0.2-0.2v-0.3l-0.3-1.3l-0.8-0.2l-0.5-0.5l-6.5,2.5l-0.2,0.3l-0.5,0.3l-5.4-0.7l1.2,1.5
		l-1.5,1.2l-0.2-0.2l-0.7,0.5l-1.9-2.7l-2.3-1.2l-0.7,1.2l-1-5l-2.3,0.2l-1.2-3.4l-3,0.3v0.5l-0.7,0.3l-0.4-0.9l-0.8,0.4l-0.1-0.1
		l0.2-0.4l24.1-7.4l4.8-5.1l-2.2-0.3l-1.2-5l-0.2-0.1v-0.1l-3.3-1.9l-2.5,2.1l-0.3-0.4l2.6-2.5l-17.2-17.3l-1.3-1.9l-6-5.4l-2.6-0.9
		l-0.1,1.9h-0.2l-1.8,0.9v0.1l-0.3,0.1l-0.8,0.7l-1-0.8l-1.4,2.5h0.1l-0.7,1.2l-0.1,0.6l-0.9,0.2l-1.1-0.9l-3.8-0.8l-0.9,1.2
		l-1.7-0.5l2.3-2.6l-0.1-0.1l0.1-0.1l0.1-0.1l-4.1-3.8l1.4-1.6l-0.2-0.1l0.1-0.1l-4.9-4.3l-0.9-0.1l1.3-2.2l0.4-4.1l-1.1-2.6
		l-3.6-2.5l-4.3-0.2l-0.9-0.9l-7.1-1.5l-6.6,5.8l-1.3,3.1l17.4,16.2l-7.7,8.5l4.2,3.9l-0.8,0.9l0.7,0.2l1.9,0.4l-5.5,13.5h-0.2
		l-2.9,7.5l-0.9,0.1h-0.1l1.5,4.1l-0.6,2.4l-1.9-0.2l-1.3,5.3l-5.9,5.7l1,0.1v0.1l17.9,2.7l-0.7,2.4l1.2,2.2h0.3l-1.4,4.5l3.9,0.8
		l0.8-0.5l2.8,0.1l0.4,7.5l-1.3,2.1l0.3,4.1l-3.8,2.6l0.1,0.1l-1.2,0.8l-6.1-0.6l-1.4-3.3l3.9-3.8l-4.5-3l-9.1-1.4l0.1-1.1l-1.9-0.9
		l1.5-5l-7.1,0.6l-1.4-1.2l-0.3,0.6l-0.5-0.4l-4.1,7.9l-2-0.2l-0.9,0.4l-0.9,1l-0.6,1.7h-0.1l-0.3-0.3l-1.3,0.4l-0.3-1.3l-3.1,0.4
		v-0.1l-1.9-1.1l-4.3-7.9l-4.8-2.7l-0.1-0.5l-3.8-1.9l0.8-0.1l-2.1-1.9l1.2-1.5l-2.5-2.2l-1.7-6.3l-8.5,2.3l-0.1-0.7l-11.9,2.2
		l1.7-3.3l1.7-2.8l-0.4-0.2l2.7-5h-0.1l3.2-4.6l1.7-1.2l2-3.6l1.1,0.6l1-3l3.1-2.1l1.1-1.9l-0.5-0.3l1.3-1.9l-0.2-0.1l4.7-7.1
		l0.1,0.1l6.8-10.2l-4.6-2.4l1.4-2.5l3.3-5.9l0.9,0.5l-0.1-1.9l0.1-0.2l-0.1-0.1l0.1-0.7l5.7-6.9l3.8-6.8l-17-9.4l11-19.9l-5.4-3
		l-3.4-1.9l-3.4-2l-1.2-0.7l-1.2,2l-1.1-0.6l-0.2,0.4l0.3-1.7l-0.3-0.2l0.1-1.3l-1.6-0.9l-6.8-3.7l1.1-1.9l-4.5-2.5l-1.4,2.7
		l-0.7-0.4l-2.8,5.4l1.6,1l-1.6,3.4l0.3,0.2l-1.7,3l0.1,0.1l-0.4,0.7l-1.5-0.8l-2.4,4.6l0.5,0.3l-1.6,2.8l1.1,0.6l-0.4,0.8l0.3,0.2
		l-0.2,0.4l-1.4-0.8l-2.8,5.1l0.3,0.2l-0.6,1.1l-0.3-0.2l-1.6,3l-0.6-0.3l-1.6,3h-0.1l-2.7,4.6l1.1,0.6l-2.1,3.9l0.4,0.2l-0.2,0.3
		l-0.3-0.2l-2.6,4.9l0.1,0.1l-0.9,1.5l-4.3-2.3l-5,9.9l4.3,2.2l-0.9,1.7l-1.8-0.1l-3.2,5.7l0.3,0.2l-3.2,5.5l0.2,0.1l-4.8,9.1
		l1.3,0.7l-3.7,7.6l-2-1.1l-4.6,8.5l-0.2-0.1l-4.6,12.3l1.9,1.1l-1.3,2.6l-2.2,3.9l1,2.5l-1.4,5.3h-1.7v12.9h4.6l-0.2,4.2l-0.6-0.1
		l-0.9,6.3l-0.5-0.1l-1,8.1l1.2,0.2l-0.4,2.6l-1.2-0.2l-0.8,1.2l-0.6,3.1l-1.3-0.8l0.1,0.9l-1-0.3l-0.5,1.9l-0.4-0.1l-1.2,6.7h-0.9
		l-0.6,6l-0.7,2.8l1.9,0.5l2.7,5.2l0.7,0.4l0.7,1l0.9,0.1l0.7,0.4l0.3,1.4l1.5-0.4l0.5,0.3l0.1,0.5l0.5-0.1h0.1l5.6-1.9l6.8-5.9
		l-0.5-0.6l0.8-0.7l-1.7-1.3l6.2-4.4v-0.2l8.6-1.1v-0.2l5.9-0.6v0.2l12.5-1.4l-0.3-2.7h0.1l0.9-2.2h0.1l1.1-2.9l-0.2-0.1l0.8-1.9
		l0.4-0.8h-0.1l0.4-1l-0.5-0.2l1.8-3.3l-1.1-0.6l0.1-0.3l-0.2-1.7l1.1-2.2l-0.3-0.2l3.1-5.5l-1.8-1l0.2-7.3l-3.2-1.8l3.2-5.8
		l-3.2-1.8l3.3-5.9l-0.7-0.4l1.6-3.1l0.2,1.6l1.7,13.1l4-0.5l0.2,3.6l0.5,4.3l-0.2,0.1l1.2,5.1l-0.6,0.3l-3.7,6.9l0.1,0.6l-6.8,19.8
		l0.9,2.3l1.4,0.6l1.4,12.3l-1.2-0.1v0.1l-7.9-0.3l-3.3-0.1l0.2-3.2l-0.8-1.5l3.1-4.3l-1-1.7v-0.2l0.2-0.9h-1l-0.3-0.5l-0.2,0.5
		h-0.6l-1.6-0.2v0.2h-0.4v-0.1l-1.8-0.1h-0.1l-1.5,0.1h-0.6v0.1l-0.6,0.1v-0.1l-10.1,0.8l-4.5,2.5l-2.3,4.3l0.6,0.6l-4.5,11.7
		l-1.3-0.5l-6,10.1l-0.3,0.1l-3.2,2.9L833,529l-0.3-0.2l-6.2,5.1l-0.2-0.3l-2.1,1.5l-1.5,2.8l1.7,10.5l4.5,2.6l-0.2,0.5l0.8,1.5
		l3.2,1.2l1.2-0.6l0.1,0.1l1.8,0.1l0.7-1.3l3-1.3l0.6,0.3l-7,13.2l0.1,1.2l-1.6-1.5l-3,2.9l-0.1-0.2l-1.6-2l-4.3,4.7l-2-1.5l-7.8,10
		l4.2,3.1l0.9-1.1l4.7,3.5l-4.2,5.3l-5.3-4.1l-10.2,12.9l7.7,3.9h-13.5v8.5h4.4l-2.2,3.2l0.2,1.8l-1-0.3l-0.5,12.5l0.5,0.1l-2,6.7
		l0.5,0.4l2.6,6.7l5,1.6l-0.4,1.3l11.1,3.2l1.4-1.3l3,1.5l1-3l6,2.6l2-2.5l0.8,0.6l-7.5,9.4l1.7,1.4l-2.1,2.7l8.5,6.3l1.5-1.8
		l5.7,4.6l2.1-2.9l1.2,0.8l2.9-1.4l0.1-0.1l2.8,2.2l0.1,1.1l1,1.6l-4.2,2.9l3.1,5.3v0.5l3.1,4.6l3.4-2.1l3.7,10.1l-6.5,1l-0.5-3.1
		l-10,1.6l1.3,8.6l-1.3,0.2l-0.4,4.8l6.5,2.7l3.6-0.4l0.2-0.3l0.4-0.1l0.1,0.9l1.5,0.2l0.2,1.6l11-1.4l-0.1-0.7l1.1-0.2l-0.1-1h0.1
		l2,3.7l0.1-2.7l1.8-0.1l0.3-0.3v4.3h16.7V704l2.2-0.6l0.6-1l13.2-2.5v0.2l4.2,1.2l14.3-2.2l-1.6-9.2l8.5-0.9l0.8,0.3l1.3-0.2
		l0.3-0.3l1.5-0.3l1-2.1l1.7-1l-0.8-5.1l1.6,1.1l-1.3-4.2l-1.5-0.9l0.6-3.1l1-0.1l-0.2-0.3l-0.7-4.5l0.3,0.4l4.2-3.4l-0.2-1.3
		l0.3-0.2l-0.7-4.5l-4.1-3.2l-2.4,0.3l-0.4-0.5l-0.5-3.5l-4.9-3.3l-8.3-7.9l-2.9,0.4l-0.6-4l-7.9,1.3l-0.8-5.4l-1.6-11.1h0.1l-1.2-8
		h1.8v-3.5l5-0.7l0.7-0.6v0.2l0.9-0.1l0.4,0.4l0.7-0.5l13-1.1v-0.2l12.5-0.9l-0.9-10.5l7-0.6l-0.5-6.5l3.3-0.3l-0.1-0.7l3.1-2.7
		l9.3-7.8l-4.2-5l5.5-1v0.2l6.8-1.5l0.1,0.5l1.9-0.2l5-3l4.4,7.7l-2.7,1.5l3.9,9.3l6.3-3.6v-0.1h0.1l4-2.3v0.1l22.3-10.2l-0.1-0.3
		L1013.4,569.3z M895.8,341.9l0.3,0.2l0.1,1.7l-1.1,2l-0.2-0.1L895.8,341.9z M873.9,457l-5.9-4.8l1.1-2.1l6.5,3.7L873.9,457z
		 M881.8,399.3l-2.5,4.1l-5.2-2.9l0.3-0.5l-3.4-1.9l-0.1,0.1l1.9-3.7l0.2,0.1l3.9-7l8.6,4.8l-3.8,6.9H881.8z M929.9,666.6l1.2,1.4
		l-2.6,0.3l-0.3-1.5L929.9,666.6z M996.6,476.2l0.2,0.4l-1.6,0.2L996.6,476.2z M997.6,408.4l0.6,2.7l-2.7,1.2l-0.8,0.5l-2.1-4.1
		l-2.8-2.1L997.6,408.4z M987.9,431.4l1.2,0.7l-0.2,0.8l-2.1-1.4L987.9,431.4z M965.9,435.6l0.2-0.5l-2-0.5l0.9-2.5h1.8l0.1-2.1
		l-1.4-2.7l0.3-0.8l1.6-1.4l2.4-5.8l-0.5,0.1l2-5.9l2.1-0.6l3.6-3.9l-0.1-1l-0.3-0.4l0.3-1.3l-2.5,0.4v-0.6l1.6-2.5l11.3,2.4
		l-0.2,0.7H987h-0.1l-1.4-1l-2.6,6.8l0.5,0.1l-1.3,4.3l0.7,0.4l-0.9,0.1l-1.3,7.6l6,6.2l-1-0.7l-2.5,5.1l-11.5,1.8L965.9,435.6z
		 M966.8,469.5l0.7,0.8l2.6-1.1v0.2l1.4,0.5l1-0.1h0.1l1.9,3.4l1.3-0.2l0.3,1.2l5.2,1.1l1-4.5l-3.6-1.3l0.3-1.2l-0.5-0.9l17.1-1
		l-1.4,1.9l0.9,8.5l-5.2,0.8v2.4l-7.9,1l-1.5-1.2v0.3l-1.4-1.3l-7,3.2l-2.5-4.2l-0.5-0.3l0.6-0.5l-1.9-2.2l1.4-0.5V471l-2.9,0.5
		l-0.2-1.5L966.8,469.5z M938,472.8l-3.5-3.1l-0.2,0.1v-0.4l0.2-0.3l0.5-1.7l1.8,1l3-0.1l5,2.3L938,472.8z M948.1,469.6l-2.8,0.9
		l0.1-0.5l1.7-0.5l0.4-0.5h0.6l-0.2,0.2L948.1,469.6z M984.8,523.5l-8.3,1.6l0.7,3.7l-6.3,4.2l1.3,2.8v0.1l-6.2,3.6l-2.8-0.1
		l0.6,1.6l-1,0.5l-2.3-0.1v1.2l-6.3,2.2l0.1-1.3l3.4-0.3l0.2-4.3l-0.4-0.4l-0.6-4.3l8.9-11l-5.1-5.3l0.9-1.1l-6.3-10.2l0.1-0.4
		l-0.4-0.4l0.1-0.7l-0.9-0.1l-5.5-8.6l6.2-7.4l0.5,0.4l4.4-3.1l4.6,0.3l4.9,10.8l2.1-0.6l1.6,4.6l-0.5,0.8l1.2,0.7l-0.8,0.1l0.2,3.1
		l0.6-0.1l0.9,1.5l-0.8,0.2l-3.7,5l-2.5,1.3l0.2,1.1l-0.3,0.4l1.7,3.5l2.9-1l0.7,0.3l0.1,0.6l-1.3,0.3l0.7,5.1l1.2,1.9l1.8-0.8
		l2.7-3.7l-0.2-1.3l1.1,0.4l4.2-1.3l1.8,2.3L984.8,523.5z"/>
</g>
<text transform="matrix(1 0 0 1 874.774 111.9964)" class="st2 st3">1900</text>
<text transform="matrix(1 0 0 1 299.0734 111.9964)" class="st2 st3">1880</text>
</svg>
