<?xml version="1.0" encoding="utf-8"?>
<!-- Generator: Adobe Illustrator 19.1.0, SVG Export Plug-In . SVG Version: 6.00 Build 0)  -->
<svg version="1.1" id="Layer_1" xmlns="http://www.w3.org/2000/svg" xmlns:xlink="http://www.w3.org/1999/xlink" x="0px" y="0px"
	 viewBox="-308 62 661.5 678" style="enable-background:new -308 62 661.5 678;" xml:space="preserve">
<style type="text/css">
	.st0{fill:#FFFFFF;fill-opacity:5.000000e-02;stroke:#000000;stroke-width:2;stroke-linecap:round;stroke-linejoin:round;}
</style>
<polygon class="st0" points="-14.4,395.7 -14.3,397 -11.8,397.7 -11.6,398.7 -12.2,398.6 -11.8,399.3 -12.7,399.5 -10.9,400.8 
	-10.9,400.7 -10.1,401.8 -2.4,406.7 13.1,393.8 23.7,392.2 24.3,391 24.8,390.6 36.9,388.7 37.2,387.9 37.9,387.6 41.4,380.6 
	41.9,380.8 43.2,374.6 42.8,374.4 44.7,368.1 44.2,367.9 44.7,365.7 44.8,364.7 45.4,363.6 44.7,363.2 44.8,360.4 45.4,355.7 
	44.4,355.3 42.7,349.3 42.6,349.3 42.7,349.1 37.7,346 36.9,347.5 34.4,346 28.8,342.9 23.6,340.1 23.6,340 23.1,339.7 9.2,332 
	0.9,327.4 -0.6,330.4 -1.2,336.1 -4.8,334.1 -5.9,342.3 -5.9,342.4 -6.2,343.1 -5.2,343.2 -5.5,349 -5.8,348.9 -6.5,356.2 
	-6.6,356.2 -9.5,375.8 -9.7,375.8 -10.1,377.3 -11.3,377.9 -10,378.7 -10.5,379.1 -10.2,379.4 -11.1,380 -10.6,380.3 -10.9,380.4 
	-10.4,381.3 -10.5,381.6 -11.6,382.2 -12.3,382.4 -11.9,382.9 -12.3,383.1 -11.2,384.5 -12,388.2 -13.4,388.6 -12.3,389.3 
	-12.4,389.7 -12.5,389.8 -12.7,390.9 -13.3,390.8 -13.9,393.6 -14.1,393.6 -14,393.7 -13.6,394.1 -13.7,394.9 "/>
<polygon class="st0" points="150.7,417.8 141,421.8 144.8,415 141.2,416.2 140.4,415.5 138.3,416.1 133.6,424.6 138.4,423 
	140.3,424.9 139.9,425 145.6,429.6 146.6,434.8 152.8,433.6 152.5,431.5 152.3,430.8 153.8,430.1 "/>
<polygon class="st0" points="-271.2,702.3 -273.8,703.2 -274.1,702 -276.3,702.8 -276.9,703.2 -280.8,704.2 -278.8,712.2 
	-279.2,712.2 -279,713 -279.3,713 -277.9,716.3 -271.1,714.3 -267.8,713.4 -270,707.7 "/>
<polygon class="st0" points="-175.8,639.2 -168.9,647.5 -159,639.4 -165.9,631 "/>
<path class="st0" d="M54.1,238l7,3.7l-3,5.4l10.7,5.9l-6.5,11.8l16.4,9.3l6.2-6.6l2.6-6.3L76,254.8l1.9-2.3l-1.2-1.4l-3.4,2.2
	l-1.7-1l1.7-3.1l17.6,9.7l3.1-1.6l0.5-0.9l0.6-10.1l-1.9-5.2l2.2,1.2l1.2-0.4l0.2-0.5l2.7,1.5l-1,1.8l4.8,2.6l5.7-10.5l-7.9-4.6
	l3.7-8.1l-0.4-2.1l-0.4-0.2l1.3-1.5l-3,0.6l-10.6-5.8l-1,2.2l-2.7-1.5h-0.3l0.1-0.2l-6.7-3.7l-0.1,0.2l-0.8-0.4l0.1-0.3l-2.1-1.2
	l-0.2,0.3l-0.4-0.2l-1.7-0.9l-6-3.4l0.6-1l-4.7-2.8l-3.2,6.5l0.2,0.1l-0.5,0.9l-1.1-0.6l0.1-2.5l-1.9-0.2l-1.3,8.1l0.9,0.2l-0.4,0.8
	l-0.3-0.2l-2.1,3.8l-1.7-0.9l-7.7,15l7.6,4.3L54.1,238z M90.4,217.9l-1.1,2.4V219l-0.3-0.1l-0.1-0.9L90.4,217.9z M81.7,234.1
	l0.5,0.3l-0.1,0.3l-0.6-0.3L81.7,234.1z M62.4,219.6l1.8,1l-1.2,2.2l-1.8-1L62.4,219.6z"/>
<polygon class="st0" points="50.9,285.4 42.3,301 52,306.4 52,306.5 56.4,309.5 56.6,309 60.5,311.2 62.6,309.7 62.7,309.7 
	63.2,309.2 68.7,301.6 68.9,301.8 69.5,300.6 69.9,300.5 70.4,299.8 70.3,299.8 71.1,298.9 70.7,298.8 72,297 "/>
<polygon class="st0" points="34.5,309.8 39.4,301 32.8,297.3 42.6,279.5 27.6,270.8 25.4,274.8 23,273.3 17.4,284.2 18.6,285 
	11.9,297.3 "/>
<polygon class="st0" points="-177.2,492.5 -176.2,492.2 -176.3,489.9 -176.9,490.1 -177.3,488.6 -177.8,489.1 -178.7,487.5 
	-178.9,487.7 -179,487.3 -182.1,490.3 -181.7,495 -180.6,496 -176.4,494.8 -176.6,492.7 -177.3,492.9 -177.2,492.6 "/>
<polygon class="st0" points="-182.1,645.9 -181.9,645.8 -183.2,644 -194,650.4 -191,652.7 -191.5,652.8 -190.5,655.5 -185.8,653 
	-181,649.8 -181.4,648.9 -180.7,648.5 "/>
<polygon class="st0" points="-189,511.9 -188.5,522.8 -177.8,523.4 -178.2,512.5 "/>
<polygon class="st0" points="159.5,465.3 163.3,472.1 166.6,469.7 164.7,461.9 "/>
<polygon class="st0" points="152.4,163.3 152.9,162.7 165.3,170 169,165.7 141,148.5 134.7,160.5 141.9,166.3 "/>
<polygon class="st0" points="-246.3,638.4 -246.4,638.3 -244.2,638 -248.2,626.8 -250.3,627.7 -249.7,629.3 -249.9,629.4 
	-255.2,628 -258.3,628.8 -257.9,629.8 -258.7,629.9 -254.7,641.2 -251,640 "/>
<path class="st0" d="M-263.5,684.2l0.1,0.5l-3.6,0.9l0.2-5.2l-3.7-0.3v-2.6l-3.7-0.4l-3.4-0.2l-0.2,6.7l2.6,1.4l-0.4,1.9l0.5,1.5
	l1.4,1.5l3,0.3l2.4,4.2l2.7-1.1l1.7-1.5l-0.5-1.3l1.5-2l0.1,0.3l2.5-0.3v-1.6l-0.7-3.4L-263.5,684.2z M-268.6,688.3l0.5-0.1l0.8,1.4
	L-268.6,688.3z"/>
<polygon class="st0" points="-247.3,675 -253.2,674.9 -253.5,687.3 -251,687.5 -247.3,685.8 -247.3,687 -230.9,686.9 -230.9,671.2 
	-247.3,671.2 "/>
<polygon class="st0" points="-210.8,667.4 -210.9,667.4 -211.4,665 -211.8,663.4 -212.5,660.5 -214.6,661.2 -214.8,660.2 
	-219,661.3 -219,661.4 -220.8,661.9 -219.6,664.8 -221.5,667.9 -221.4,668.2 -221.6,668.2 -220.4,670.9 -219.4,670.3 -217.6,672.8 
	-216.6,672.4 -216.2,673.9 -210.1,671.4 -210.5,669 "/>
<path class="st0" d="M137.4,287.7l3.3-3.6l-4-3.6l-0.5,0.6l-2.6-2.3l-1.3-1.1l0.6-0.7l-5.6-4l-3.1,3.5l-2.6-2.3l0.1-0.2l-4.5-4.1
	l0.2-0.2l-1.2-1.1l3.6-4.2l-4-3.6l-3.6,4.1l-0.2-0.1l-3.7,4.4l0.1,0.1l-0.9,1.7l-0.1-0.1l-2.9,2.6l-0.1-0.1l-3.7,4.3l0.3,0.3l-1.6,2
	l-1.2-1.1l-3.4,3.9l-1.6-1.2l-0.3,0.9l-0.3-0.6l-3.3-1.4l-0.4,0.9l-1.5-0.6l-2.7,2l-0.8,1.3l-0.1-0.1l-0.8,1.6l0.1,0.1l-2.1,5.1
	l4,1.6l-1.1,1.8l-0.1-0.1l-1.7,2.5l-2.1-1l-2.7,5.6l4.1,1.8l5.4,3l-0.2,0.2l10.7,6.3l0.1-0.1l3.1,1.9l-0.1,0.1l6.3,4v-0.1l3.1,1.9
	l-0.4,0.6l7.3,1.1l1-1.6l0.1,0.1l0.9-1.7h-0.1l1.3-4.3l-0.3-0.2l5-11.2l-1.5-1v-0.1l1.7-2.8l1.4,0.3l1.6-1.8l0.1,0.1l4.5-4.2l1,0.5
	l0.7-1l0.1,0.1l1.4-1.9l7.3-1.1L137.4,287.7z M118.1,298.9l-2.2-1.4l0.1-0.1l2.7,0.6L118.1,298.9z M122.8,295.5l-2.8-2.7l1.3-1.3
	l2.8,2.6L122.8,295.5z"/>
<polygon class="st0" points="118.3,193.5 108.5,191.9 106.7,203 116.4,205.1 "/>
<polygon class="st0" points="172.1,453.3 172.3,452.4 167.6,453.3 167.7,453.6 167.3,453.7 168.2,458 168.8,460.9 174.7,459.7 
	173.4,453.1 "/>
<polygon class="st0" points="204.1,378.4 210.7,384.7 211.9,384.4 217.4,387.7 218.1,386.8 219.2,386.3 213.9,376.9 208.2,373 
	205.9,374 203.9,374.9 205.9,377.6 "/>
<polygon class="st0" points="137.6,203.6 139,196.2 130.3,194.5 127.9,207.9 135.6,209.3 "/>
<polygon class="st0" points="135.2,346.3 129,355.7 130.5,356.8 136.8,347.2 "/>
<polygon class="st0" points="121.5,367 128.9,375.8 133.2,369.9 123.9,363.4 "/>
<polygon class="st0" points="285.8,467.7 282.1,467.8 282.1,468.8 281.3,468.5 280.1,473.9 281.7,473.2 283,476.3 287.1,476.2 "/>
<path class="st0" d="M224.6,407.6l3.6-1.5l0.6,1.6l1.7-0.7l0.2,0.6l6-2.1l-0.7-1.8l9.5-3.4l-1.5-3.9l4.1-1.3l-3.1-8.1l-6.2,2.1
	l0.6,1.7l-4.5,1.7l-1.5-2.9l1.5-0.6l-0.6-1.3l4.7-1.9l-1.8-5.7l-4.7,1.6l-0.3-3.9l-6.3,0.3l0.3,5.6l-0.2,0.1l0.4,2.4h0.5l0.6,1.7
	l-0.9,0.4l-1-2l-5.8,2.9l0.7,1.4l-4.9,0.5l-0.4-1l-3.6,0.9l-3.3,0.9l-0.7,2.1l0.1,0.9l-1.3,1.3l0.1,0.3l-4.7,1.6l2.4,7.2l-1.5,0.6
	l0.1,0.4l-10.5,4.2l-0.4-3.5l-0.9,0.2l-0.8-4l-8.1,1.7l0.5,2.6l-2.1,0.3l-0.1-0.4l-6.3,1.4l0.1,0.2l-1.9,0.5l-0.2-0.7l-9.8,1.9
	l2,9.1l1.1-0.3l0.6,3.2h-0.2l0.2,1.2l-3.9,1.3l0.8,4.6l0.9-0.4l0.6,3.1l9.2-2.4l-0.1-0.6l2-0.5l-0.1-0.3l0.2-0.1l0.1,0.3l0.8-0.1
	l2.5,6.6l13.7-6.1l-1.9-5.1l5.5-2.1l-0.5-1.3l11.1-4.1L206,414l6-2.2l-0.8-2.3l1.2-0.5l1.3,3.2l-0.2,0.1l2.9,8.2l6.1-2.2l-1.9-5.2
	l5.4-2.1L224.6,407.6z M222.3,394l-0.6,0.2l-0.2-1.7L222.3,394z M218.4,407.1l-0.1-0.2l0.6-0.2l-1.1-3l2.4-1v-0.1l1.6-0.3l1.2,3.1
	L218.4,407.1z"/>
<polygon class="st0" points="239.2,416 243.7,420 249.6,413.3 244.9,409.1 "/>
<path class="st0" d="M79.4,181.4l0.2-0.3l3.3,1.8l0.9,0.5l-0.6,1.1l2.6,0.1l5.2,2.8l2.9-5.4l1.8-1.1l-1.1-0.3l4.2-8l-4.6-2.5
	l0.3-0.5l0.1,0.1l4.6-8.6l7.2-3.4l-0.2-0.5l0.6,0.4l5.4-9.7l-0.1-0.1l3.8-6.1l0.1,0.1l1.3-5.7l-0.5-2l-0.4-0.5l3.7,1.6l0.7-2.6
	l-1-1.2l7.5-13.7l0.4-0.1l4.8-11l-0.7-0.3l1.4-4.8l-0.5-3.2h-0.1l0.5-8.9l0.3-6.7l-0.1-9.4l-2.7-1.1v-0.1l-3.9-1.6l0.2-1.1l-12-3.8
	l-2.5,7.7l0.8,0.3l-5.6,18.8l0.6,0.1l-1.3,5.7l-0.8-0.1l-2.2,10.4h-0.1l-6.3,14.9l-0.8-0.4l-7,11.6l1.5,0.8l-0.9,2.1l-0.5-0.5
	l-10.1,22.1l-1.8-0.6l-1.7,5.6l-3-1l-3.1,9.8l1.5,0.5l-1.5,2.9L79.4,181.4z M109.5,131.8l-0.8-0.8h0.3l0.9,0.4L109.5,131.8z
	 M107.9,121.6l0.5,0.5l0.5-2.4l4.3,2.2l-0.7,1.3l1,0.7l-1.7,1.6l-4.5-2.6L107.9,121.6z M102.8,131l1.9,1.1l-1.1,0.5l-1.3-0.7
	L102.8,131z"/>
<polygon class="st0" points="162.1,313.5 162.6,313.3 163.3,312.8 162.2,303.9 155.8,304.9 157.4,313.2 "/>
<polygon class="st0" points="249.9,437.4 248.3,437.7 248.2,437.3 243.2,437.8 243.1,434.8 239.5,435.2 239.5,435.6 237.9,435.7 
	237.9,435.6 236.3,433.6 235.4,436.3 235.6,437.4 233.7,438.1 233.1,436.9 228.5,436.6 230.1,439.4 228,440.2 229.8,443.7 
	237,444.1 236.9,448.7 242.4,449.4 244,449.6 244,449.5 245.1,449.6 245.1,449.5 245.3,449.5 245.4,449.7 247.8,449.5 250.4,449.9 
	250.5,448.9 251.9,449.1 251.6,447.3 251.9,447.4 252.1,445.7 252.7,445.8 252.8,440.6 250.3,440.8 "/>
<polygon class="st0" points="146.5,231.1 150.7,231.8 151.2,231.4 156.6,229.8 156.5,225.6 155,223.8 154.9,223.8 154.7,223.5 
	154.2,223.4 152.9,221.9 152.3,221.9 151.4,220.7 151.6,218.9 150.6,217.1 151.1,212.1 142.3,213.1 139.4,216.9 140.3,218.9 
	139,220.3 137.9,227.3 135.9,229.7 137.6,233 138.2,232.2 138.2,233.2 140.7,231.6 140.7,231.8 144.6,230.9 "/>
<polygon class="st0" points="162.5,342.4 164.5,341.8 163,336.7 159.5,336.4 157.1,337.2 157.9,337.8 156.5,338.7 157.3,341.3 
	151.7,341.3 151.7,350.6 162.5,350.6 "/>
<polygon class="st0" points="-286,690.7 -286.2,690.8 -286.5,690.4 -287.6,691.4 -287.8,691 -289.8,692.7 -289.5,692.9 
	-289.9,693.4 -289.6,693.9 -289.7,694.2 -288.5,695.8 -288.8,696.7 -287.6,698.8 -286.6,697.9 -286.3,698.4 -282.6,695.7 
	-284,693.9 "/>
<polygon class="st0" points="31.9,482.2 32.5,487 40.1,483.1 39.4,478.3 "/>
<polygon class="st0" points="52.2,482 49.7,482.5 50.4,488.5 56.1,487.7 56.9,493 57,493 57.2,493.8 60.8,491.6 60.6,486.4 
	61.6,486.4 61.6,488.2 69.4,487.8 78.5,487.3 78.3,484.7 77.9,484.7 77.4,479.3 74,479.5 73.6,474.2 68.3,474.6 68.7,479.8 
	63.5,480.1 63.3,478.9 63.1,478.9 62.7,475.4 62.9,475.1 62.8,473.3 62.6,473.3 62.2,468 53.6,469.2 54.4,477.2 54.6,477.1 
	54.8,478.1 55.2,481.2 52.5,481.6 "/>
<polygon class="st0" points="35.3,496 35.7,499.6 33,500 33.7,506 41.8,504.9 41.4,500.9 42.8,500.6 42.1,495 "/>
<path class="st0" d="M53.6,587.8l-3.8,1.2l0.8-3.2l-4.1-3.3l-0.2,0.7L46,583l-1.8,7.2l-1.1-0.2l1.1-4l-6.5-1.9l-1.4,5.2l-1.4,0.4
	l-0.3-5.2l-7.8,1l0.9,6.1l-6.3,0.9l0.8,5.5l5-0.7l0.8,5.3l-1,1.4l4.7-0.4v0.2l2.8-0.4l-0.3,2l6.5,0.9l0.7-6.1l2.8,0.4l0.1-1.7
	l3.4,0.7l0.9-5.2l7.8-2l2.5-0.8l-1.6-4.9L53.6,587.8z M37.9,597.3l-0.5-0.1l-0.3-2.9l-1.5,0.2l0.4-1.7l2.2,0.8L37.9,597.3z"/>
<polygon class="st0" points="139.8,441.4 139.5,439.5 132.2,440.9 132.5,442.4 126.4,443.5 128.7,454.6 130.2,454.4 130.9,458.3 
	133.8,457.7 133.8,457.8 134.5,458.3 139.7,457.1 138.3,449.6 138.1,449.7 137.7,447.9 140.2,447.4 140.6,449.5 146,448.4 
	146.6,447.8 145.2,440.3 "/>
<polygon class="st0" points="77.8,498.3 70.3,498.9 70.5,502.4 65.5,502.7 70.4,508.7 73.3,508.5 72.9,504.2 78.3,503.9 "/>
<polygon class="st0" points="43.9,506.4 47.6,512 50.6,510.1 49.3,503 "/>
<polygon class="st0" points="38.7,509.9 32.3,514 37.5,518.4 42.2,515.3 "/>
<polygon class="st0" points="23.1,558.8 19,563.9 25,568.8 25.4,571.8 34,570.8 33.5,567.3 34.9,567.2 34,560.7 26.8,561.8 "/>
<polygon class="st0" points="102.5,574.2 103.1,575.9 115.7,574.7 110.2,570.3 "/>
<polygon class="st0" points="126.7,534 131.6,539.8 136.6,535.7 131.7,529.8 "/>
<path class="st0" d="M127.9,437.8l0.1,1.2l-0.6,0.4l0.5,1.9l7.2-1.4L134,435l-0.9,0.2l-0.3-0.9l-4.6,0.7l-1.5-1l1.3-1.6l-0.9-0.7
	l0.3-0.4l-0.7-1.4l3-5l-3.5-5.8l2.9-5l-3.2-2.7l1.2-1.7l1.3,0.9l1.9-2.8l3,2.3l0.2-2.7l0.4-0.2l1.2-0.1l2.3-3.5l-5.6-4.3l0.5-0.2
	l-2.4-7.7l-4.2,1.1l-0.2-0.6l-0.7,0.9l-0.6,0.2l-1.6-1.1l-0.5,0.7l-3.4-2.7l-2.7,3.5l-1.8-1.3l-2.5,3.1l-0.4-0.3l0.3-0.6l-1.3-1
	l-0.8-1.2l3.1-4.1l-4.1-3.2l-2,2.6l-0.7-1.2v-0.1l-0.6-1.1l-2-1.3l0.5-0.2l-1.3-3.8l1.2-0.5l-2.8-7.9l-1,0.4l-0.1-0.2l-1.6-1.2h-0.4
	l-0.9-0.9h-0.1l-0.7-0.7l-0.1-0.7H96v-0.5l0.4-0.8l0.3-0.3l-3-6.7l-1.8-0.3l-0.2-0.5l-1.2,0.3l-0.1-0.1l-0.5,0.3l0.1-0.5l-2.7-0.4
	l-0.4-6.6l-4.6,0.7l-0.5-1.8l-0.3,0.1l-0.5-1.7l-15.4-7.9l-0.4,0.8l-1.1-0.1v-0.3l-3.6,0.7l-4.5,3.4l1.3,1.6l-0.2,0.5l-1.5,1.7
	l-1.9,0.1l0.1,0.7h-0.2l0.2,2.4l-0.5,0.1l0.8,1.7h0.2l0.2,0.3l-0.6,0.1l0.2,1.1l-0.5,0.1l0.3,2.3h0.3v1.1l-0.6,0.1l0.5,2.3l0.7-0.1
	l-0.2,1.8l-0.4,0.5l-0.8-0.3l-7.1,14.4l1.2,0.5v0.3l-2.8,6.3l0.5,0.2l-0.8,1.4l-0.2,1.7h-0.1v1.2h0.1v0.9l0.9-0.1l0.2,2.4l-0.5,0.4
	l0.1,2.2l-1,2.7l2.8,3.4l-1.9-0.1l0.5,7l4.8,0.3v0.1l4-0.6v0.1l0.4-0.1l0.2,1.1l-3.5,0.5l0.6,3.7l-0.2,0.1l0.3,1.8H52l0.2,1.1
	l-6.2,0.9l-0.9-6.1l-0.7-4.7l-9.9-0.5l0.2-3.2l-0.9-1.5l2-2.7h-0.2l0.9-1.3l0.2-0.9l-0.5-0.4l0.1-0.2l-0.4-0.3l0.4-1.4l-2.6-0.1
	l-0.5-0.3l-0.2,0.2L23,394l-0.1,1.1h-0.4v0.2h-0.6h-0.3l-0.3-0.6l-0.2,0.6l-0.9-0.4v0.6h-0.1v0.1h-0.8v0.2l-0.9,0.2v0.2h-0.6
	l-2.6,1.6l-1.3-0.5l-1.2,0.8l-1.8,4.6l0.3,0.1l-0.6,1.3l0.2,0.1l-0.1,0.2l-0.1-0.1l-0.4,1.1h-0.1l-0.3,0.8H9.7l-0.4,0.9l-0.6-0.2
	l-2.1,5.7H6.5l-0.3,0.9H6.1l-0.5,1.8l-0.3-0.1l-0.8,2l-0.3,0.7l0.2,0.1l-1,2h0.1l-0.1,0.3H3.3l-0.5,1.4l-0.5-0.2L2.1,422l-0.4-0.1
	l-0.3,1l-0.5-0.2l-0.3,1l-2.1-1.8l-7.7,9.4l0.7,0.6l-3.5,2.9l-0.4-0.4l-1.5,3.8H-14l0.1,2.6l0.3,1.9h0.1l0.7,5.2h-0.1v0.2h-0.3v1.6
	l0.7,0.3l0.9,8.5l1.6,1.5l6.2,1.9l5.4-1.1l0.8-2.2l3.2-1.4l0.4-1l1.5,0.5l0.1-0.2l0.2,0.1l0.6-1.7l1.1,0.3l0.3-1l1,0.4l0.1-0.2
	l1.2,1.1l-2.3,2l-1,0.9l2.5,2l-0.5,0.7L8.2,459l-0.5,0.4l-0.9,0.8l-1,0.9H5.7l-1.1,1h0.1l-0.6,0.7l2.4,2v0.1l1.2,1.1l-3.5,4.6H3.3
	l-1.1,1.5L2,472l-0.9,0.5l-0.9-0.3l-1.2,0.2l-1.1-0.4l-0.7,0.2l-3.3-2.8l-2.6,2.2l1.1,0.6l-0.8,0.2l-1.5,1.4l-0.7-0.6l-1.7,3l-1,0.4
	l-0.7-0.5l-2.1,2.5l0.8,0.8l-4.6,6.9l-0.9-0.8l-4.1,5.3l-0.2-0.3l-0.6,0.7l-0.9-0.5l-0.1,0.1l-0.4-0.2l-2.7,4.1l-1.3,2.1l0.9,0.6
	l-0.5,1.7l-0.7-0.3v-0.3l-4.8-1.9l-1,2.1l3.4,1.4l0.1,1.3l-1.4,2l0.5,0.8l1.4,0.5l0.5-0.6l0.6,0.2l-0.7,2.2l6.4,2l-0.8,2.6l-0.9,2.9
	l3.5,1.2l0.8,0.2l3.8,1.1l0.4-1.3l0.4-1.4l1-3.1l0.2-0.5l-6.3-2l1.2-3.9l5.9,3.1l0.2-0.7l4.6-7.7l-0.1-0.1l1-1.2l7.4,5.5l7.2-5.2
	l9.2-6.3l-0.1-0.1l6.7-4.9l-4.5-3.5l-0.6-2L9,477.5l5.6-7.1l0.7-0.9l4.2,3.4l0.3-0.4l7.9,3l1-1.2l1.1,0.9l-1.1,1.4l2,1.7l10.6-4.5
	l0.6-0.8l0.2-0.9l-1.1-3.8l-5.7-3.5l2-3.1h0.1l5.2-8.5l0.2,0.2l3-5.1l5.6,9.9L55,459l0.3,2.4h0.1l0.4,4.9l4.4-0.4l4-0.3l0.5,5.8
	L70,471l-0.5-5.8l15.9-1.3l3.5-0.3v-3.8l8.3-2.5v0.3l5.8-3v0.6l2.9,0.1l0.1-1.1l3.3-1.9l0.1-1.7l0.3-0.2h0.4l0.7-0.4l0.5-0.7
	l0.3,0.1l0.7,1.1l9.7-5.6h0.1v-0.1l0.7-0.4l-0.6-0.5l0.2-1.8l0.1-2.1l0.1-1.1l1.8-0.6l0.2-0.2l2.3,1.7L127.9,437.8z M-7.1,452.4
	h-0.3l-0.2,1.2h-0.2l-0.2,1.1v0.2h-0.1l-0.3,0.9l-1-6.1l1.4,0.8l0.1-0.2l1.2,0.9L-7.1,452.4z M-24.4,491.4l-0.4-0.5l0.5,0.4
	L-24.4,491.4z M49.4,438.5l-4.5-1.2l-3.1-0.9l-2.3-4.2l2.9-0.4l3.7,1.1h0.3l4.1,1.1L49.4,438.5z M62.6,419.5l-0.4,0.6l0.5,3.1
	l0.3,2.1l-5.7,0.9l0.4,3.5l-2.8,0.4l-1-0.3l-1.1-6.5l-5.8,0.9l-0.5-3l9.7-1.6l0.1,0.4l12-1.8l-0.1-0.4l2-0.4l0.1,0.9L62.6,419.5z
	 M71.9,415.8l0.3-2.5l-4.6,0.7l-0.2-1.3l0.4-0.1v-0.1l4.2-0.7v0.1h0.1l0.5-0.1l0.6,3.8L71.9,415.8z M77,405.2l1.5-0.2l0.6,3.6
	l-1.5,0.2L77,405.2z M87.3,415.8l-8.4,1.3v-0.2l3.5-0.5v-0.2l6.8-1l-0.6-3.8l4.9,3.6L87.3,415.8z"/>
<polygon class="st0" points="92.3,489.8 92.8,495.2 100.3,494.6 99.9,489.1 "/>
<polygon class="st0" points="72.8,579.8 72.4,576.5 72,576.5 71.7,575.3 71.8,575.3 71.4,573.3 71.3,573.3 63.6,574.4 64,577.2 
	63,577.3 63.1,577.8 62.3,578 61.2,577.5 61.1,578.2 58.4,578.5 59.2,583.9 64.1,583.2 65,589.8 68.5,589.2 68.5,589.4 75.2,588.5 
	74.1,579.8 "/>
<polygon class="st0" points="-151.6,578.8 -140.6,579.2 -139.9,566.2 -151.1,566.2 "/>
<polygon class="st0" points="78.1,531.8 74,532.4 75.5,542.3 81.5,541.7 "/>
<polygon class="st0" points="76.1,579.4 76.7,588.8 83.6,587.7 82.8,578.4 "/>
<polygon class="st0" points="80.3,551.9 84.7,557 92,550.8 87.7,545.5 "/>
<polygon class="st0" points="-75.1,555.8 -68.6,566.8 -59.3,561.2 -65.8,550 "/>
<polygon class="st0" points="-81.9,567 -77.6,578.8 -67.5,575.3 -71.9,563.4 "/>
<polygon class="st0" points="-63.5,541.8 -64.5,539.9 -63.7,539.4 -62.6,539.7 -61.7,537.8 -64.4,533.8 -64.4,533.5 -65.3,532.9 
	-65.6,532.2 -66.1,532 -65.5,531.4 -66,531 -66,530.9 -67.1,529.9 -67.3,530.2 -67.8,529.8 -68.4,529 -69.2,529.5 -73.6,521.4 
	-73.3,521.2 -75.2,516.8 -75.8,516.9 -76.1,513.8 -79.7,514.2 -77.8,509.6 -77.7,509.6 -76.9,500.4 -83.8,499 -83.9,495.9 
	-80.9,494 -80.5,496.4 -72.6,496 -72.8,495.3 -68.7,495.9 -70.9,493.6 -71,493.1 -71.1,493.1 -70.9,493 -71.6,492.5 -70.6,492.2 
	-70.7,492.1 -70.5,492.1 -77.9,485.8 -79,485.6 -79.1,485.1 -83.9,482.6 -84.5,482.7 -85.2,481.5 -91.3,485.6 -93.1,479.5 
	-95,479.6 -95.5,484.6 -98.3,486.2 -95,492.3 -94.8,492.3 -94.8,496.4 -104.8,499.2 -101.2,504.9 -101.3,505 -99.7,508.5 
	-98.7,508.2 -96.4,508.9 -90.2,503.7 -84.3,503.5 -84.9,504.9 -84.6,505.9 -84.7,506.4 -84.3,506.4 -85.3,509 -84.7,509.4 
	-85.7,511.7 -89.8,506.9 -91.8,505.7 -98.3,516.2 -94.8,518.2 -94.6,517.3 -93.8,517.4 -93.7,517 -88.3,517.4 -85.9,513.8 
	-83.5,514.9 -83.3,516.8 -87.6,518.5 -87.4,519 -91.9,520.9 -91.3,522.4 -91.5,522.4 -91.6,522.9 -91.8,522.8 -91.8,522.9 
	-92.7,522.3 -93.6,527.8 -102.8,527.9 -104.1,529.4 -105.1,540.4 -94.1,540.7 -93.2,528.2 -92.4,528.3 -92.5,528.8 -90.5,529 
	-90.4,529 -89,529.2 -88.6,526.7 -85.1,525.2 -85,525.3 -84,525 -81.2,531 -85.8,533.5 -81.9,541.2 -82.5,541.5 -81.4,542.2 
	-79.9,544.8 -75.6,552 -66,546.4 -68,543 -67.4,542.5 -65.2,546.7 -63.1,545.3 -63,545.4 -59.3,543.7 -61.2,540.4 "/>
<polygon class="st0" points="-89.4,540.8 -96.8,551 -87.8,557.7 -80.3,547.2 "/>
<polygon class="st0" points="-39.1,324.8 -34.1,314.3 -34.8,313.9 -33,310.2 -34.6,308.4 -34.7,308.7 -35.8,308.1 -37.8,307.1 
	-39.3,306.4 -39.4,306.4 -41,305.5 -41.2,305.9 -41.9,305.7 -42.2,306.4 -42.9,306.7 -42.7,307.3 -43.4,308.4 -43.2,308.4 
	-43.7,309.2 -45,309.1 -44.3,310.3 -44.4,310.3 -44.3,310.4 -44.2,310.5 -44.6,311.5 -44.1,311.7 -44.3,312.1 -43.3,312.6 
	-47.4,320.7 "/>
<polygon class="st0" points="-106.3,567.7 -97.4,574 -90.1,563.4 -98.9,557.2 "/>
<polygon class="st0" points="-132.8,534.4 -131.4,547.2 -120.4,545.9 -121.8,533.2 "/>
<polygon class="st0" points="-104.8,515.8 -105.4,511.2 -104.7,511.1 -104.2,510.7 -104,510.1 -103.9,506 -111.8,504.9 
	-112.8,497.9 -113.9,498.1 -114.3,496.9 -115.9,487.9 -121.1,488.7 -121.2,488.6 -123.6,489.8 -123.5,489.9 -124.3,490.6 
	-124.5,490.6 -125.8,491.8 -123.5,493.8 -123.2,493.7 -122,498.2 -122.4,498.2 -122.1,500.3 -124.7,500.7 -125.2,498.1 -125.2,498 
	-125,496.8 -126.4,496.9 -127.4,493.8 -128.6,494.7 -129.2,493.7 -131.3,494.3 -131.3,494.4 -133.8,494.8 -133.9,494.5 
	-139.4,497.6 -138.7,498.9 -142.7,500.6 -142.3,501.4 -142.3,501.6 -148.6,497.9 -151.7,503.6 -145.5,507.2 -142.3,501.7 
	-142.1,505.4 -142.3,505.4 -143.7,508.2 -142.6,508.9 -140.3,512.8 -140.6,513.2 -140,514.2 -138.4,514.8 -138.3,515.8 -138,515.9 
	-138,516 -143.4,516.7 -143.3,516.4 -154.1,516 -155.4,528.2 -154.4,528.3 -156.1,536.5 -145.4,539 -143.5,529.5 -136.2,528.9 
	-137.5,517.2 -136.8,517 -136.6,517.2 -136,517.2 -134.7,521.4 -132.1,519.9 -131.1,520.9 -128.4,520.4 -128,520.2 -127.5,523.3 
	-123.3,522.7 -123.4,522.4 -121.8,521.8 -121.7,522.4 -116.7,521.8 -116.9,520.3 -116.1,520.2 -113.1,519.8 -113.1,519.4 
	-111.4,519.2 -111.8,517 "/>
<polygon class="st0" points="17.7,596.7 9.5,598.2 10.1,603.2 12.4,603.3 11,606.8 16.2,603.2 17.4,603.3 17.5,602.9 18.4,602.8 
	18.2,601.3 20.4,596.2 "/>
<polygon class="st0" points="7,594.8 6.6,591.7 6.5,591.8 6.1,588.3 3.5,588.8 3.4,588.4 2.3,588.8 2.2,588.7 1.4,588.8 1.3,588.2 
	-0.5,588.4 -0.5,588.8 -1.5,589 -1.7,588.7 -6,593.2 -7.4,593.4 -6.7,597.9 -5.1,599.8 -3.8,599.5 -2.8,600.3 -2.7,600.2 
	-2.6,600.4 2.4,602.8 2.5,602.8 4,603.3 4.6,603.5 4.3,602.8 8.5,604.5 "/>
<polygon class="st0" points="36.3,560.9 36.8,564.4 36.7,564.4 36.8,564.8 36.6,564.7 37.1,568.5 37.4,568.5 37.4,569 38.4,569.8 
	42.8,569.4 42.8,569.2 44.2,569.4 44.7,564.8 44.4,564.8 45.5,563 42.8,563.5 43.2,559.9 "/>
<polygon class="st0" points="-5.2,554.3 -10.9,550.5 -13.2,553.9 -10.3,555.9 -9.5,554.9 -6.8,556.8 "/>
<polygon class="st0" points="-12.7,515.5 -9.9,506.4 -7.9,503.9 -12.1,500.5 -14.6,503.9 -17.5,513.2 -15.1,514.5 -15.4,515.2 "/>
<polygon class="st0" points="-0.6,550 -2,549 -3.8,547.4 -6.4,551.2 -2.6,554.4 1.2,551.8 0.2,551 -0.1,550.5 -0.4,550.3 "/>
<polygon class="st0" points="-26.6,531.2 -27.6,532.3 -27.1,532.8 -27.2,533.2 -31.9,530.2 -31.5,528.9 -27.9,532.2 -26.6,530.8 
	-30.9,526.8 -30.3,524.8 -34.7,523.3 -35.3,522.8 -32.8,513.7 -32.9,513.8 -31.6,509.4 -35.3,507.9 -36.1,508.9 -37,508.4 
	-38.2,510.2 -38.4,511.4 -39.2,512.4 -39.1,514 -41.4,521.8 -39.5,522.2 -41.2,528.2 -37.1,529.4 -37.1,529.2 -33,530.7 
	-35.8,535.2 -32.3,537.7 -33.9,540.9 -35.4,541.8 -34.6,544.2 -33.2,543.2 -32.1,544.4 -32.7,545 -29.7,546.4 -26.4,541 
	-28.4,539.8 -27.5,538.2 -25.4,539.7 -22.9,535.9 -22.6,536 -24.3,539.8 -21.1,541.8 -20.7,540.9 -18.2,535.2 -26.2,529.8 "/>
<polygon class="st0" points="-7.7,511.4 -9.4,509.9 -11.1,515.3 -6.8,518.8 -2.8,515.2 -3.7,514.5 -0.1,510 -4.1,506.7 "/>
</svg>
