<?xml version="1.0" encoding="utf-8"?>
<!-- Generator: Adobe Illustrator 19.1.0, SVG Export Plug-In . SVG Version: 6.00 Build 0)  -->
<svg version="1.1" id="Layer_1" xmlns="http://www.w3.org/2000/svg" xmlns:xlink="http://www.w3.org/1999/xlink" x="0px" y="0px"
	 viewBox="0 0 1024 768" style="enable-background:new 0 0 1024 768;" xml:space="preserve">
<style type="text/css">
	.st0{fill:#CCCCCC;stroke:#000000;stroke-width:3;stroke-miterlimit:10;}
	.st1{display:none;fill:none;}
	
		.st2{opacity:0.36;fill:#EAEAEA;stroke:#000000;stroke-linecap:round;stroke-linejoin:round;stroke-miterlimit:10;stroke-dasharray:12,12;}
	.st3{fill:none;stroke:#0000D4;stroke-width:4;stroke-linecap:round;stroke-linejoin:round;}
	.st4{fill:#0000D4;}
	.st5{fill:none;stroke:#FF7B56;stroke-width:3;stroke-linecap:round;stroke-linejoin:round;}
	.st6{fill:#FF7B56;}
	.st7{opacity:0.42;}
	.st8{font-family:'OpenSans-Semibold';}
	.st9{font-size:33.4696px;}
	.st10{font-family:'OpenSans-Italic';}
	.st11{font-size:15.7779px;}
	.st12{font-family:'Consolas';}
	.st13{font-size:19px;}
</style>
<symbol  id="New_Symbol" viewBox="-19 -18.5 38 37">
	<path class="st0" d="M17,0c0-9.4-7.6-17-17-17S-17-9.4-17,0s7.6,17,17,17S17,9.4,17,0z"/>
	<polygon class="st1" points="-19,18 19,18 19,-18 -19,-18 	"/>
</symbol>
<path class="st2" d="M954.1,153c17,82.5,7,410.7-26.1,479c-63.4,130.4-203.8,37.3-225,26c-51-27-80.5-83.3-84.3-248
	c-2.6-112.6-40.4-252.3,8.6-305C660.4,69.4,737,30,831.5,35C882.5,37.7,944.3,105.4,954.1,153z"/>
<path class="st2" d="M419.7,118c29,54.8,47.3,124.2,29.8,197c-29.8,124,51.7,273.8,18.5,342c-63.4,130.4-332.1,83-387,32
	C2.1,615.7,60.8,530.7,56.9,366c-2.6-112.6-40.7-176.2,26.3-259.7C141.8,33.3,251.4,49,302.5,49S397,75,419.7,118z"/>
<use xlink:href="#New_Symbol"  width="38" height="37" x="-19" y="-18.5" transform="matrix(1 0 0 -1 168 208)" style="overflow:visible;"/>
<use xlink:href="#New_Symbol"  width="38" height="37" x="-19" y="-18.5" transform="matrix(1 0 0 -1 382 273)" style="overflow:visible;"/>
<use xlink:href="#New_Symbol"  width="38" height="37" x="-19" y="-18.5" transform="matrix(1 0 0 -1 130 375)" style="overflow:visible;"/>
<use xlink:href="#New_Symbol"  width="38" height="37" x="-19" y="-18.5" transform="matrix(1 0 0 -1 373 442)" style="overflow:visible;"/>
<use xlink:href="#New_Symbol"  width="38" height="37" x="-19" y="-18.5" transform="matrix(1 0 0 -1 410 649)" style="overflow:visible;"/>
<use xlink:href="#New_Symbol"  width="38" height="37" x="-19" y="-18.5" transform="matrix(1 0 0 -1 247 640)" style="overflow:visible;"/>
<use xlink:href="#New_Symbol"  width="38" height="37" x="-19" y="-18.5" transform="matrix(1 0 0 -1 219 525)" style="overflow:visible;"/>
<g>
	<g>
		<line class="st3" x1="301.3" y1="132.2" x2="205.7" y2="186.5"/>
		<g>
			<polygon class="st4" points="291.1,130.2 300.3,132.8 297.8,142 302.8,139.2 305.3,129.9 296.1,127.4 			"/>
		</g>
	</g>
</g>
<g>
	<g>
		<line class="st3" x1="155.9" y1="249" x2="135.8" y2="339.2"/>
		<g>
			<polygon class="st4" points="147.6,255.3 155.7,250.2 160.8,258.3 162.1,252.6 156.9,244.5 148.8,249.7 			"/>
		</g>
	</g>
</g>
<g>
	<g>
		<line class="st3" x1="376.3" y1="312.3" x2="372.7" y2="404"/>
		<g>
			<polygon class="st4" points="369.2,320 376.3,313.4 382.8,320.5 383,314.7 376.5,307.7 369.5,314.2 			"/>
		</g>
	</g>
</g>
<g>
	<g>
		<line class="st3" x1="333.1" y1="433.3" x2="168.7" y2="396.6"/>
		<g>
			<polygon class="st4" points="326.8,425 331.9,433.1 323.8,438.2 329.4,439.4 337.5,434.3 332.4,426.2 			"/>
		</g>
	</g>
</g>
<g>
	<g>
		<line class="st3" x1="335.6" y1="470.5" x2="246.5" y2="514.6"/>
		<g>
			<polygon class="st4" points="325.4,468 334.5,471 331.5,480.1 336.6,477.5 339.7,468.5 330.6,465.4 			"/>
		</g>
	</g>
</g>
<g>
	<g>
		<line class="st3" x1="354.8" y1="486.4" x2="270.4" y2="616.9"/>
		<g>
			<polygon class="st4" points="344.8,489.4 354.2,487.4 356.2,496.8 359.3,491.9 357.3,482.5 347.9,484.5 			"/>
		</g>
	</g>
</g>
<g>
	<g>
		<line class="st3" x1="382.7" y1="493.7" x2="405" y2="620.5"/>
		<g>
			<polygon class="st4" points="377.4,502.8 382.9,494.9 390.8,500.4 389.8,494.7 381.9,489.2 376.4,497.1 			"/>
		</g>
	</g>
</g>
<g>
	<g>
		<line class="st5" x1="624.1" y1="179.6" x2="419.7" y2="254.5"/>
		<g>
			<polygon class="st6" points="616.7,176.9 623.3,179.9 620.2,186.5 624.3,185 627.3,178.5 620.8,175.4 			"/>
		</g>
	</g>
</g>
<text transform="matrix(1 0 0 1 168.0001 339.2309)" class="st7 st8 st9">Amsterdam</text>
<text transform="matrix(1 0 0 1 634.6924 339.2309)" class="st7 st8 st9">Noord-Holland</text>
<text transform="matrix(1 0 0 1 91.5386 178.4616)" class="st10 st11">Amsterdam</text>
<text transform="matrix(0.8774 -0.4797 0.4797 0.8774 239.3112 191.8198)" class="st4 st12 st13">sameAs</text>
<g>
	<g>
		<line class="st3" x1="822.3" y1="137" x2="713.8" y2="154.9"/>
		<g>
			<polygon class="st4" points="813.3,131.6 821.1,137.2 815.5,145 821.2,144 826.8,136.2 819,130.6 			"/>
		</g>
	</g>
</g>
<g>
	<g>
		<line class="st3" x1="860.6" y1="430.1" x2="737" y2="461"/>
		<g>
			<polygon class="st4" points="851.2,425.5 859.4,430.4 854.5,438.6 860.1,437.2 865,429 856.8,424.1 			"/>
		</g>
	</g>
</g>
<g>
	<g>
		<line class="st3" x1="875" y1="180.2" x2="895.9" y2="379"/>
		<g>
			<polygon class="st4" points="869.1,188.9 875.1,181.4 882.6,187.5 882,181.7 874.5,175.7 868.5,183.1 			"/>
		</g>
	</g>
</g>
<g>
	<g>
		<line class="st3" x1="726.2" y1="506.9" x2="826.8" y2="608"/>
		<g>
			<polygon class="st4" points="727,517.3 727.1,507.7 736.7,507.7 732.6,503.6 723,503.6 723,513.2 			"/>
		</g>
	</g>
</g>
<text transform="matrix(0.9892 -0.1466 0.1466 0.9892 743.4894 171.4024)" class="st4 st12 st13">sameAs</text>
<text transform="matrix(0.9424 -0.3344 0.3344 0.9424 506.0424 246.7519)" class="st6 st12 st13">liesIn</text>
<text transform="matrix(1 0 0 1 191.6923 96.9776)" class="st10 st11">Amstelledamme</text>
<text transform="matrix(1 0 0 1 736.9999 489.2309)" class="st10 st11">Noord-Holland</text>
<text transform="matrix(1 0 0 1 802.3053 657.0222)" class="st10 st11">NH</text>
<text transform="matrix(1 0 0 1 94.5386 631.9773)" class="st10 st11">Amstelredamum</text>
<text transform="matrix(1 0 0 1 122.9774 556.8849)" class="st10 st11">Amsterdam</text>
<text transform="matrix(1 0 0 1 302.9999 679.8073)" class="st10 st11">Amsteledam</text>
<use xlink:href="#New_Symbol"  width="38" height="37" x="-19" y="-18.5" transform="matrix(1 0 0 -1 332 114)" style="overflow:visible;"/>
<use xlink:href="#New_Symbol"  width="38" height="37" x="-19" y="-18.5" transform="matrix(1 0 0 -1 670 165)" style="overflow:visible;"/>
<use xlink:href="#New_Symbol"  width="38" height="37" id="XMLID_1_" x="-19" y="-18.5" transform="matrix(1 0 0 -1 867 136)" style="overflow:visible;"/>
<use xlink:href="#New_Symbol"  width="38" height="37" x="-19" y="-18.5" transform="matrix(1 0 0 -1 900 415)" style="overflow:visible;"/>
<use xlink:href="#New_Symbol"  width="38" height="37" x="-19" y="-18.5" transform="matrix(1 0 0 -1 703 473)" style="overflow:visible;"/>
<use xlink:href="#New_Symbol"  width="38" height="37" x="-19" y="-18.5" transform="matrix(1 0 0 -1 850 630)" style="overflow:visible;"/>
</svg>
