<?xml version="1.0" encoding="utf-8"?>
<!-- Generator: Adobe Illustrator 19.1.0, SVG Export Plug-In . SVG Version: 6.00 Build 0)  -->
<svg version="1.1" id="Layer_1" xmlns="http://www.w3.org/2000/svg" xmlns:xlink="http://www.w3.org/1999/xlink" x="0px" y="0px"
	 viewBox="522 231 1656 332" style="enable-background:new 522 231 1656 332;" xml:space="preserve">
<style type="text/css">
	.st0{fill:#FFFFFF;stroke:#000000;}
	.st1{font-family:'Consolas';}
	.st2{font-size:13px;}
	.st3{fill:none;stroke:#000000;}
	.st4{stroke:#000000;}
</style>
<title>spacetime</title>
<title>building-inspector</title>
<ellipse class="st0" cx="800.1" cy="253" rx="81.7" ry="18"/>
<text transform="matrix(1 0 0 1 735.7832 257.2265)" class="st1 st2">building-inspector</text>
<title>building-inspector-nyc-streets</title>
<ellipse class="st0" cx="955.1" cy="325" rx="126.7" ry="18"/>
<text transform="matrix(1 0 0 1 849.2451 329.2129)" class="st1 st2">building-inspector-nyc-streets</text>
<title>building-inspector-&gt;building-inspector-nyc-streets</title>
<path class="st3" d="M835.3,269.4c21.8,10.1,49.9,23.2,73.5,34.1"/>
<polygon class="st4" points="910.3,300.4 917.9,307.7 907.3,306.7 "/>
<title>building-inspector-toponyms</title>
<ellipse class="st0" cx="649.1" cy="325" rx="123.3" ry="18"/>
<text transform="matrix(1 0 0 1 548.0088 329.2129)" class="st1 st2">building-inspector-toponyms</text>
<title>building-inspector-&gt;building-inspector-toponyms</title>
<path class="st3" d="M765.5,269.5c-21,10-48.1,23-70.9,33.8"/>
<polygon class="st4" points="696,306.6 685.4,307.7 693,300.2 "/>
<title>spacetime-graph</title>
<ellipse class="st0" cx="1327" cy="469" rx="74.7" ry="18"/>
<text transform="matrix(1 0 0 1 1270.752 473.186)" class="st1 st2">spacetime-graph</text>
<title>building-inspector-&gt;spacetime-graph</title>
<path class="st3" d="M800.9,271.4c1.5,19,5.8,49,18.2,71.7c22.1,40.2,32.6,52.1,74,72c60.1,28.9,241.9,43.5,350.2,49.9"/>
<polygon class="st4" points="1243.7,461.4 1253.5,465.5 1243.3,468.4 "/>
<title>city-directories-building-inspector</title>
<ellipse class="st0" cx="1056" cy="397" rx="143.5" ry="18"/>
<text transform="matrix(1 0 0 1 933.043 401.1996)" class="st1 st2">city-directories-building-inspector</text>
<title>building-inspector-nyc-streets-&gt;city-directories-building-inspector</title>
<path class="st3" d="M980,342.8c12.9,9.2,28.7,20.5,42.6,30.4"/>
<polygon class="st4" points="1024.9,370.5 1031,379.2 1020.9,376.2 "/>
<title>building-inspector-nyc-streets-&gt;spacetime-graph</title>
<path class="st3" d="M932.2,342.9c-21.8,19.2-48.7,49.9-29.1,72.1c22.1,25.1,223.8,41.7,340.8,49.2"/>
<polygon class="st4" points="1244.1,460.7 1253.9,464.9 1243.7,467.7 "/>
<title>nyc-streets</title>
<ellipse class="st0" cx="1169" cy="253" rx="52.7" ry="18"/>
<text transform="matrix(1 0 0 1 1130.7129 257.2265)" class="st1 st2">nyc-streets</text>
<title>nyc-streets-&gt;building-inspector-nyc-streets</title>
<path class="st3" d="M1131.3,265.7c-32.4,10.9-79.6,26.8-117,39.4"/>
<polygon class="st4" points="1015.1,308.5 1004.5,308.4 1012.9,301.9 "/>
<title>city-directories</title>
<ellipse class="st0" cx="1169" cy="325" rx="69.5" ry="18"/>
<text transform="matrix(1 0 0 1 1106.667 329.2129)" class="st1 st2">city-directories</text>
<title>nyc-streets-&gt;city-directories</title>
<path class="st3" d="M1169,271.2c0,7.7,0,16.9,0,25.4"/>
<polygon class="st4" points="1172.5,296.6 1169,306.6 1165.5,296.6 "/>
<title>nyc-streets-&gt;spacetime-graph</title>
<path class="st3" d="M1199.2,267.9c16.1,9.3,35.2,22.6,47.8,39.1c30.9,40.4,13.6,63.3,38,108c5.3,9.8,12.4,19.7,19.2,28.3"/>
<polygon class="st4" points="1307,441.1 1310.6,451 1301.6,445.5 "/>
<title>building-inspector-toponyms-&gt;spacetime-graph</title>
<path class="st3" d="M669.2,342.8c25.3,21.2,71,55.9,116.9,72.2c82,29,326.2,44.2,456.6,50.5"/>
<polygon class="st4" points="1243.2,462 1253,466 1242.9,469 "/>
<title>city-directories-&gt;city-directories-building-inspector</title>
<path class="st3" d="M1142.8,341.7c-14.9,9.5-33.7,21.5-50,31.8"/>
<polygon class="st4" points="1094.4,376.7 1084.1,379.1 1090.6,370.8 "/>
<title>city-directories-&gt;spacetime-graph</title>
<path class="st3" d="M1183.7,342.9c15.9,18.9,42.4,49.1,68.4,72.1c12.5,11.1,27.3,22.1,40.3,31.2"/>
<polygon class="st4" points="1294.4,443.4 1300.7,452 1290.5,449.2 "/>
<title>city-directories-building-inspector-&gt;spacetime-graph</title>
<path class="st3" d="M1117.5,413.3c44.7,11.9,104.9,27.9,149.3,39.7"/>
<polygon class="st4" points="1267.9,449.7 1276.6,455.6 1266.1,456.4 "/>
<title>elasticsearch-ingest</title>
<ellipse class="st0" cx="1327" cy="541" rx="86.8" ry="18"/>
<text transform="matrix(1 0 0 1 1252.2021 545.1729)" class="st1 st2">elasticsearch-ingest</text>
<title>spacetime-graph-&gt;elasticsearch-ingest</title>
<path class="st3" d="M1327,487.2c0,7.7,0,16.9,0,25.4"/>
<polygon class="st4" points="1330.5,512.6 1327,522.6 1323.5,512.6 "/>
<title>mapwarper</title>
<ellipse class="st0" cx="2116.9" cy="397" rx="54.4" ry="18"/>
<text transform="matrix(1 0 0 1 2082.374 401.1996)" class="st1 st2">mapwarper</text>
<title>mapwarper-&gt;spacetime-graph</title>
<path class="st3" d="M2077.5,409.6c-7.8,2.1-15.9,4-23.6,5.4c-121.4,21.6-479.3,41.6-643.2,49.9"/>
<polygon class="st4" points="1410.8,468.4 1400.6,465.4 1410.4,461.4 "/>
<title>group-maps</title>
<ellipse class="st0" cx="2116.9" cy="469" rx="57.3" ry="18"/>
<text transform="matrix(1 0 0 1 2083.4189 473.186)" class="st1 st2">group-maps</text>
<title>mapwarper-&gt;group-maps</title>
<path class="st3" d="M2116.9,415.2c0,7.7,0,16.9,0,25.4"/>
<polygon class="st4" points="2120.4,440.6 2116.9,450.6 2113.4,440.6 "/>
<title>enumeration-districts</title>
<ellipse class="st0" cx="1387" cy="397" rx="93.2" ry="18"/>
<text transform="matrix(1 0 0 1 1307.5156 401.1996)" class="st1 st2">enumeration-districts</text>
<title>enumeration-districts-&gt;spacetime-graph</title>
<path class="st3" d="M1372.2,414.8c-7.1,8.6-15.8,19-23.7,28.4"/>
<polygon class="st4" points="1351,445.7 1341.9,451.1 1345.6,441.2 "/>
<title>nyc-churches</title>
<ellipse class="st0" cx="1561" cy="397" rx="62.5" ry="18"/>
<text transform="matrix(1 0 0 1 1516.6484 401.1996)" class="st1 st2">nyc-churches</text>
<title>nyc-churches-&gt;spacetime-graph</title>
<path class="st3" d="M1518,410.2c-38,11.7-93.7,28.8-135.1,41.6"/>
<polygon class="st4" points="1383.8,455.2 1373.2,454.8 1381.8,448.5 "/>
<title>nyc-wards</title>
<ellipse class="st0" cx="1692.9" cy="397" rx="51" ry="18"/>
<text transform="matrix(1 0 0 1 1659.7803 401.1996)" class="st1 st2">nyc-wards</text>
<title>nyc-wards-&gt;spacetime-graph</title>
<path class="st3" d="M1654.7,409.2c-7.2,2.1-14.7,4.1-21.8,5.8c-78.2,18.6-169,33.8-231.2,43.3"/>
<polygon class="st4" points="1402,461.8 1391.6,459.8 1401,454.9 "/>
<title>oldnyc</title>
<ellipse class="st0" cx="1799.9" cy="397" rx="37.1" ry="18"/>
<text transform="matrix(1 0 0 1 1774.8623 401.1996)" class="st1 st2">oldnyc</text>
<title>oldnyc-&gt;spacetime-graph</title>
<path class="st3" d="M1771.9,409c-6.2,2.3-12.7,4.5-19,6c-116.8,29.3-255.9,43.1-342.5,49.3"/>
<polygon class="st4" points="1410.5,467.8 1400.3,465 1410.1,460.9 "/>
<title>perris-atlas-footprints</title>
<ellipse class="st0" cx="1949.9" cy="397" rx="94.9" ry="18"/>
<text transform="matrix(1 0 0 1 1869.2451 401.1996)" class="st1 st2">perris-atlas-footprints</text>
<title>perris-atlas-footprints-&gt;spacetime-graph</title>
<path class="st3" d="M1881.5,409.5c-11.8,2-24,3.9-35.6,5.5c-154.2,21.3-335.2,38.4-437.5,47.2"/>
<polygon class="st4" points="1408.4,465.7 1398.1,463.1 1407.8,458.8 "/>
</svg>
