<?xml version="1.0" encoding="utf-8"?>
<!-- Generator: Adobe Illustrator 19.1.0, SVG Export Plug-In . SVG Version: 6.00 Build 0)  -->
<svg version="1.1" id="Layer_1" xmlns="http://www.w3.org/2000/svg" xmlns:xlink="http://www.w3.org/1999/xlink" x="0px" y="0px"
	 viewBox="0 0 355 355" style="enable-background:new 0 0 355 355;" xml:space="preserve">
<style type="text/css">
	.st0{fill:#231F20;}
</style>
<g>
	<path class="st0" d="M176.8,22.3c-85.1,0-154.4,69.2-154.4,155.2c0,86,69.8,155.3,154.5,155.3c86,0,155.7-69.2,155.7-155.2
		C332.6,91.5,262.9,22.3,176.8,22.3z M86.3,286.4c-2.8-2.3-4-4.3-5.7-7c-13.2-21.1-20.6-95.7-3.6-121c5.4-8.9,11.1-4.8,9.2,2.1
		c-3.3,15.4-1.3,24,6.2,40.7c11.8,24.8,48.1,59.3,57.7,71.8c16.5,21.4,22,37,21.9,41.2c-0.1,3.2-0.7,5.3-6.4,4.8
		C135.8,316.7,107,304.3,86.3,286.4z M313.9,215.6c-1.2,3.6-2.6,8.2-5.5,6.1c-5.5-4.1-17.8-12-29.6-16.4c-0.6-0.1-0.6-1-0.3-1.5
		c0.8-1.9,1.2-3.6,1.6-5.8c0.3-2.1,1.8-3.4,2.9-5.1c3-4.9,4.7-13.3,5.4-18.6c0.5-4.9,0.2-10.3-0.8-14.8c-0.4-1.9-1.8-4.4-1.8-6.5
		c0-2.1,1-4.3,1.2-6.7c0.6-7.1-8.4-13.1-13.3-15.3c-11.1-5.2-22.9-9.8-35-16.2c-6.8-3.6-12.2-11.4-17.7-15.6
		c-5.5-4.2-23.2-11.2-30.2-13.1c-1.6-0.5-2.2-1.2-2.4-2.4c-2.9-13.9-11.1-29.2-26.4-41c-5-3.9,0.6-6,7.4-6.4
		C276.8,32.4,338.8,131.5,313.9,215.6z M270.2,168c-0.1-0.5-0.3-2.4-0.3-2.8c0-1,2-2.3,3-3.1c1.4-1.1,3.1-2.4,4.1-2.9
		c0.4-0.2,0.6,0.3,0.7,0.4c4,6,2.5,20.9-0.4,28c-0.3,0.7-0.9,1-1.2,0.5c-1.5-3.2-3.6-6.1-6.1-7.6c-0.5-0.4-0.5-1.1-0.5-1.2
		C270.3,175.8,270.7,172.1,270.2,168z M140.2,101.7c5.1-4.1,19.9-9.7,37.6-5.4c5,1.2,18,5.5,26.7,9.7c8.5,3.9,14.5,11.1,22.4,15.5
		c10,5.5,23.7,8.1,34.2,13.3c2.1,1,7.7,4.8,6.2,5.6c-5.3,2.3-14.6,1-20.1-0.3c-2.8-0.6-6.3-1.4-7.6,1.1c-1.5,2.7-0.4,6.8,0.7,9.3
		c1.4,3,3.3,5.2,5.8,6.3c3.4,1.6,8.1,1.7,11.3,3.5c5.9,3.4,6.1,14.4,2.2,19.9c-3.2,4.6-12.8,5.4-21.7,5c-8.6-0.4-18.6-1.3-24.9,1.3
		c-6.2,2.6-9.2,7-12.9,12.4c-0.5,0.7-1.3,0.8-2.1,0.3c-22-13.2-49.9-20.1-64.7-41.1c-3.7-5.2-6-11.5-7.2-19
		C123.1,121.6,130.6,109.3,140.2,101.7z M105.8,62.1c-4.3-0.5-4.4-3.7-2.6-4.9c4.7-3.3,12.4-7.3,20.1-10.4c2.3-0.9,3.5-1.2,5.6-0.9
		c5.7,0.6,15.1,4.4,25.9,12.1c12.9,9.2,24.5,26.8,16.8,25.4c-4.9-0.8-2.8-0.6-8.5-1.2c-5.8-0.5-9.7,0.1-12.4-0.2
		c-1.2-0.1-2.1-0.9-2.9-1.6C137,70.6,124.3,64.4,105.8,62.1z M221.1,204.6c0.9-2.5,1.9-3.9,3.8-5.1c3.6-2.3,9.6-2.4,15.4-2.8
		c5.6-0.4,11.6-0.7,15.6-2.6c2.4-1.1,4.8-4.3,8.6-2.7c1.8,0.8,2.7,2.4,3.3,4c0.6,1.8,1,3.6,0.8,6c-0.5,6.9-6.2,10.3-7.2,16.8
		c-0.1,1-0.3,2.5-0.8,3c-4.3,4.4-12.8,3.5-20.5,2.7c-2.8-0.3-5.5-0.3-7.3-1.2c-1.3-0.6-2.6-1.9-3.7-2.9c-2.5-2.3-3.9-4-6.3-6.7
		c-0.8-0.9-2.7-2.6-2.9-3.7C219.7,208.5,220.7,205.6,221.1,204.6z M73.1,82c1.1-1.1,1.8-1.6,3.3-2.1c19.9-4.9,39.8-1.8,54.1,4.6
		c3.2,1.4,4.7,3.4,2.6,4.8c-2.7,1.6-10.8,6.9-15.3,11.1c-1.3,1.1-3.6,1.2-5,1c-16.8-2.2-25.6-3.5-50.8,6.1c-3.9,1.6-7.4-0.6-5.6-3.6
		C59.7,97.8,67.6,87.7,73.1,82z M38.2,149.7c0.3-1.8,0.5-2.3,1.5-3.7c1.7-2.6,22.5-25.9,54.8-31.6c4.2-0.6,7.3-0.3,8,1.4
		c1.2,3-1.3,4.7-4.2,6.4c-51.7,30.9-48,76.9-48.5,95.7c0.2,7.7-5.4,9.1-6.8,5.5C36.9,206.8,31.8,180.8,38.2,149.7z M103.3,185.8
		c-9.1-22.2-3.2-42.1,0.9-49.7c2-3.8,4-6.3,6.6-5.6c2.8,0.8,3.5,3.7,3.9,9c2.9,44.3,29.7,59.2,63.3,74.9
		c26.6,13.6,56.8,29.1,82.1,66.7c3.8,5.4,4.4,8.7,0.1,11.8c-15.4,10.5-29.4,17.9-49.9,22.7c-3.1,0.7-6.3,0.2-9-6.9
		C172.8,235.5,125.1,238.8,103.3,185.8z M279.4,275.9c-4.3,4.3-6.8,0.9-8.2-1.8c-6.1-12.9-12-23.7-21.5-34.1c-1.7-1.7-0.4-4,2.1-3.8
		c3.1,0.2,5.1,0.1,8.6-1.4c2.9-1.2,6.2-5.3,7.9-11.1c1.2-4.2,1.3-5.5,3.9-5.8c0.6-0.1,1.8,0.1,2.5,0.3c3.2,0.9,6.6,3.5,9.1,5.4
		c6.4,4.9,15.9,15.6,17.6,19.1c1.1,2.2,0,3.7-0.6,5C297.3,254.5,286.7,268.6,279.4,275.9z"/>
	<path class="st0" d="M184.3,132.2c3.8,1.3,8,2.3,10.9,4c1.7,1,3.5,3.6,5.9,3.3c2.4-0.3,3.9-5.1,4.4-7.5c0.7-3.6,0.3-8.1-0.9-10.4
		c-2-3.8-7.8-4.7-13.9-4.4c-4.1,0.2-6.4,0.6-9.6,1.5c-3.4,1-8,3.3-6,8C176.4,129.7,181,131.1,184.3,132.2z"/>
</g>
</svg>
